<?xml version="1.0" encoding="UTF-8" ?>
<!DOCTYPE svg PUBLIC "-//W3C//DTD SVG 1.1//EN" "http://www.w3.org/Graphics/SVG/1.1/DTD/svg11.dtd">
<svg width="1379pt" height="815pt" viewBox="0 0 1379 815" version="1.1" xmlns="http://www.w3.org/2000/svg">
<g id="#ffffffff">
<path fill="#ffffff" opacity="1.00" d=" M 928.36 102.27 C 928.41 95.41 928.24 88.55 928.46 81.70 C 938.76 81.84 949.07 81.72 959.38 81.77 C 959.40 92.05 959.37 102.34 959.40 112.62 C 954.22 112.69 949.05 112.57 943.88 112.71 C 943.89 109.22 943.88 105.74 943.87 102.26 C 938.70 102.25 933.53 102.25 928.36 102.27 Z" />
<path fill="#ffffff" opacity="1.00" d=" M 603.41 630.19 C 603.44 623.34 603.34 616.49 603.47 609.65 C 613.79 609.73 624.11 609.66 634.43 609.69 C 634.45 619.96 634.43 630.23 634.44 640.51 C 629.28 640.56 624.12 640.43 618.97 640.60 C 618.95 637.12 618.93 633.64 618.91 630.17 C 613.74 630.18 608.58 630.18 603.41 630.19 Z" />
<path fill="#ffffff" opacity="1.00" d=" M 1210.32 630.19 C 1210.36 623.34 1210.24 616.49 1210.39 609.64 C 1220.70 609.74 1231.02 609.65 1241.34 609.69 C 1241.35 619.96 1241.33 630.23 1241.35 640.50 C 1236.18 640.57 1231.01 640.42 1225.85 640.60 C 1225.85 637.13 1225.84 633.65 1225.85 630.19 C 1220.67 630.17 1215.49 630.18 1210.32 630.19 Z" />
</g>
<g id="#3f3d56ff">
<path fill="#3f3d56" opacity="1.00" d=" M 926.89 80.26 C 938.22 80.28 949.55 80.26 960.88 80.27 C 960.98 91.80 960.68 103.34 961.04 114.87 C 955.31 114.73 949.56 115.21 943.86 114.58 C 938.26 113.75 932.58 114.78 926.99 114.05 C 926.69 110.13 926.92 106.20 926.88 102.28 C 926.87 94.94 926.85 87.60 926.89 80.26 M 928.36 102.27 C 928.35 105.77 928.35 109.28 928.36 112.79 C 933.53 112.76 938.71 112.88 943.88 112.71 C 949.05 112.57 954.22 112.69 959.40 112.62 C 959.37 102.34 959.40 92.05 959.38 81.77 C 949.07 81.72 938.76 81.84 928.46 81.70 C 928.24 88.55 928.41 95.41 928.36 102.27 Z" />
<path fill="#3f3d56" opacity="1.00" d=" M 425.60 93.53 C 464.92 93.53 504.25 93.52 543.58 93.53 C 543.55 95.31 543.53 97.09 543.50 98.86 C 628.00 99.03 712.51 98.89 797.01 98.93 C 801.78 99.00 806.87 98.38 811.28 100.65 C 816.23 102.90 819.61 107.63 821.00 112.80 C 852.62 112.84 884.25 112.79 915.88 112.82 C 915.88 113.32 915.88 114.32 915.88 114.82 C 884.33 114.84 852.78 114.81 821.24 114.84 C 821.37 228.23 821.25 341.62 821.29 455.02 C 821.06 462.50 821.85 470.05 820.73 477.49 C 827.45 477.51 834.19 477.32 840.91 477.57 C 851.22 478.28 859.90 487.69 859.86 498.01 C 859.76 504.56 860.81 511.62 857.51 517.62 C 855.09 522.31 850.83 526.00 845.81 527.67 C 884.26 527.85 922.71 527.70 961.17 527.75 C 961.19 436.51 961.17 345.28 961.18 254.04 C 961.06 247.22 961.02 240.19 963.61 233.76 C 968.74 219.64 983.00 209.50 998.04 209.37 C 1044.04 209.28 1090.05 209.35 1136.05 209.33 C 1143.40 209.24 1150.81 211.18 1157.03 215.15 C 1167.79 221.84 1174.67 234.24 1174.61 246.92 C 1174.67 268.67 1174.61 290.42 1174.64 312.17 C 1175.23 312.18 1176.42 312.20 1177.01 312.21 C 1176.99 327.68 1177.05 343.16 1176.98 358.63 C 1176.39 358.62 1175.23 358.61 1174.64 358.60 C 1174.61 440.74 1174.68 522.89 1174.60 605.04 C 1174.58 621.27 1162.78 636.99 1146.81 640.65 C 1163.82 640.84 1180.83 640.67 1197.84 640.74 C 1197.84 641.24 1197.84 642.24 1197.84 642.74 C 1010.58 642.86 823.32 642.66 636.05 642.77 C 630.39 642.66 624.70 643.12 619.06 642.51 C 613.38 641.82 607.64 642.35 601.93 642.19 C 601.92 638.19 601.92 634.19 601.92 630.19 C 601.92 622.86 601.91 615.53 601.93 608.19 C 613.26 608.19 624.59 608.19 635.92 608.19 C 635.95 619.04 635.91 629.88 635.94 640.73 C 753.68 640.70 871.41 640.80 989.14 640.68 C 976.60 637.82 966.36 627.46 962.76 615.23 C 960.60 608.35 961.28 601.07 961.18 593.98 C 961.17 572.58 961.19 551.17 961.17 529.77 C 786.11 529.76 611.04 529.77 435.98 529.76 C 431.31 529.65 426.58 530.23 422.02 528.97 C 328.33 528.88 234.62 529.00 140.93 528.91 C 133.01 528.98 125.37 524.12 122.04 516.95 C 119.10 511.08 120.16 504.33 120.03 498.01 C 120.03 489.81 125.45 482.06 133.02 479.02 C 137.53 477.03 142.56 477.46 147.36 477.50 C 147.10 475.68 146.83 473.86 146.80 472.03 C 146.81 353.68 146.80 235.34 146.80 116.99 C 146.33 107.57 154.57 98.85 164.03 98.96 C 251.23 98.88 338.42 98.99 425.62 98.90 C 425.60 97.11 425.59 95.32 425.60 93.53 M 480.30 108.37 C 476.06 110.57 476.09 117.37 480.35 119.53 C 484.37 122.05 490.11 118.65 489.93 113.95 C 490.13 109.21 484.32 105.78 480.30 108.37 M 170.36 129.87 C 170.44 245.75 170.25 361.65 170.45 477.53 C 174.03 477.45 177.61 477.45 181.20 477.48 C 181.23 475.74 181.26 474.01 181.30 472.28 C 188.80 472.00 196.31 472.14 203.81 472.21 C 203.89 473.96 203.95 475.71 204.00 477.47 C 208.35 477.47 212.69 477.48 217.03 477.46 C 217.08 475.70 217.14 473.96 217.21 472.22 C 224.72 472.12 232.23 472.01 239.73 472.28 C 239.77 474.01 239.80 475.73 239.84 477.47 C 244.19 477.47 248.54 477.47 252.89 477.46 C 252.94 475.70 253.00 473.96 253.07 472.21 C 260.58 472.13 268.09 471.99 275.59 472.29 C 275.62 473.99 275.65 475.69 275.68 477.41 C 280.03 477.51 284.37 477.46 288.72 477.47 C 288.77 475.70 288.85 473.94 288.97 472.18 C 296.40 472.06 303.83 472.21 311.26 472.10 C 311.49 473.86 311.55 475.64 311.56 477.44 C 315.90 477.48 320.24 477.47 324.58 477.45 C 324.62 475.67 324.72 473.90 324.90 472.13 C 332.32 472.14 339.74 472.14 347.17 472.13 C 347.34 473.91 347.40 475.68 347.43 477.47 C 351.75 477.47 356.08 477.45 360.40 477.50 C 360.47 475.71 360.57 473.92 360.74 472.14 C 368.16 472.14 375.59 472.12 383.01 472.15 C 383.17 473.91 383.27 475.69 383.33 477.47 C 387.67 477.46 392.02 477.51 396.37 477.41 C 396.38 475.69 396.41 473.99 396.44 472.29 C 398.97 472.14 401.51 472.09 404.05 472.13 C 456.39 472.18 508.73 472.08 561.07 472.17 C 563.69 472.17 562.06 475.83 562.53 477.41 C 566.88 477.50 571.23 477.47 575.58 477.45 C 575.61 475.67 575.71 473.90 575.88 472.14 C 583.30 472.12 590.71 472.16 598.13 472.12 C 598.34 473.90 598.41 475.68 598.44 477.48 C 602.10 477.45 605.77 477.59 609.43 477.28 C 609.94 477.37 610.96 477.54 611.47 477.63 C 611.78 475.91 610.90 473.67 612.07 472.25 C 619.40 471.98 626.75 472.18 634.08 472.18 C 634.18 473.93 634.25 475.70 634.31 477.47 C 638.66 477.46 643.02 477.50 647.37 477.43 C 647.38 475.72 647.40 474.02 647.42 472.32 C 654.92 471.94 662.44 472.17 669.95 472.19 C 670.03 473.94 670.09 475.69 670.15 477.46 C 674.50 477.47 678.85 477.47 683.21 477.46 C 683.22 475.73 683.26 474.00 683.31 472.28 C 690.81 472.00 698.32 472.12 705.83 472.22 C 705.89 473.96 705.95 475.71 706.02 477.47 C 710.35 477.47 714.70 477.47 719.04 477.46 C 719.07 475.71 719.14 473.96 719.22 472.22 C 726.72 472.11 734.22 472.02 741.72 472.26 C 741.76 473.99 741.80 475.72 741.85 477.47 C 746.19 477.47 750.54 477.47 754.89 477.46 C 754.94 475.69 755.01 473.94 755.11 472.20 C 762.61 472.16 770.13 471.96 777.63 472.31 C 777.65 474.02 777.66 475.74 777.70 477.47 C 784.32 477.51 790.95 477.37 797.58 477.55 C 797.78 473.70 797.68 469.84 797.70 465.99 C 797.71 354.01 797.68 242.03 797.71 130.04 C 588.68 130.03 379.65 129.96 170.62 130.08 L 170.36 129.87 M 971.59 250.04 C 971.61 304.87 971.55 359.69 971.62 414.52 C 971.50 478.35 971.59 542.18 971.58 606.00 C 971.43 615.90 976.97 625.56 985.54 630.48 C 990.17 633.26 995.60 634.45 1000.97 634.37 C 1046.97 634.33 1092.97 634.41 1138.96 634.33 C 1153.18 634.41 1165.97 622.15 1166.54 607.96 C 1166.74 594.65 1166.59 581.34 1166.61 568.03 C 1166.59 464.03 1166.61 360.04 1166.60 256.04 C 1166.56 251.34 1166.89 246.53 1165.62 241.95 C 1163.08 232.17 1154.85 224.12 1144.98 221.90 C 1136.95 220.35 1128.68 221.48 1120.56 221.13 C 1121.92 225.38 1121.66 230.29 1118.90 233.94 C 1116.25 237.75 1111.56 239.78 1106.98 239.54 C 1080.64 239.47 1054.29 239.64 1027.95 239.45 C 1019.29 239.16 1013.05 229.22 1016.52 221.26 C 1010.67 221.02 1004.82 221.14 998.99 221.16 C 983.92 221.11 970.83 235.03 971.59 250.04 M 603.41 630.19 C 603.40 633.69 603.40 637.20 603.41 640.70 C 608.59 640.67 613.78 640.83 618.97 640.60 C 624.12 640.43 629.28 640.56 634.44 640.51 C 634.43 630.23 634.45 619.96 634.43 609.69 C 624.11 609.66 613.79 609.73 603.47 609.65 C 603.34 616.49 603.44 623.34 603.41 630.19 Z" />
<path fill="#3f3d56" opacity="1.00" d=" M 740.99 143.31 C 747.09 143.33 753.20 143.32 759.30 143.32 C 763.09 143.32 766.89 143.32 770.68 143.33 C 770.70 153.22 770.67 163.11 770.70 173.00 C 760.78 173.13 750.86 173.03 740.95 173.06 C 740.94 169.26 740.94 165.47 740.94 161.67 C 740.96 155.55 740.90 149.43 740.99 143.31 M 742.22 144.65 C 742.25 150.33 742.23 156.02 742.24 161.70 C 742.23 165.05 742.23 168.41 742.24 171.76 C 751.33 171.65 760.44 172.00 769.52 171.58 C 769.23 162.60 769.46 153.60 769.39 144.62 C 766.03 144.61 762.68 144.62 759.32 144.62 C 753.62 144.63 747.92 144.59 742.22 144.65 Z" />
<path fill="#3f3d56" opacity="1.00" d=" M 559.02 225.54 C 625.79 225.52 692.55 225.54 759.32 225.53 C 759.30 227.28 759.30 229.04 759.30 230.79 C 692.55 230.79 625.80 230.78 559.05 230.79 C 559.04 229.04 559.02 227.29 559.02 225.54 Z" />
<path fill="#3f3d56" opacity="1.00" d=" M 559.05 242.14 C 625.80 242.16 692.56 242.14 759.31 242.15 C 759.30 243.90 759.30 245.65 759.31 247.40 C 692.55 247.39 625.79 247.41 559.02 247.40 C 559.02 245.64 559.03 243.89 559.05 242.14 Z" />
<path fill="#3f3d56" opacity="1.00" d=" M 559.03 258.77 C 625.79 258.76 692.55 258.78 759.31 258.76 C 759.30 260.51 759.30 262.26 759.31 264.01 C 692.55 264.02 625.79 264.02 559.03 264.01 C 559.03 262.26 559.02 260.51 559.03 258.77 Z" />
<path fill="#3f3d56" opacity="1.00" d=" M 559.07 275.36 C 625.83 275.50 692.61 275.21 759.37 275.50 C 759.35 277.18 759.34 278.85 759.35 280.53 C 692.59 280.79 625.82 280.54 559.06 280.66 C 559.05 278.89 559.05 277.12 559.07 275.36 Z" />
<path fill="#3f3d56" opacity="1.00" d=" M 241.35 295.33 C 256.96 284.89 276.56 280.76 295.08 283.74 C 322.02 287.72 345.76 307.50 354.70 333.20 C 361.42 351.82 360.42 373.06 351.94 390.96 C 345.63 404.51 335.19 416.03 322.44 423.80 C 318.21 426.38 313.66 428.35 309.11 430.27 L 308.36 428.30 L 309.23 427.99 C 314.74 425.95 320.01 423.24 324.80 419.82 C 336.62 411.99 345.86 400.44 351.37 387.41 C 358.22 371.20 358.96 352.53 353.47 335.82 C 348.57 320.74 338.65 307.39 325.69 298.28 C 311.39 288.12 293.38 283.39 275.94 285.15 C 257.98 286.79 240.84 295.41 228.68 308.71 C 211.63 326.89 205.07 353.99 211.68 378.00 C 212.85 382.46 214.53 386.78 216.53 390.94 L 217.06 392.02 C 216.47 392.01 215.29 392.01 214.71 392.01 C 213.11 388.32 211.55 384.61 210.40 380.76 C 205.38 364.19 206.24 345.89 212.86 329.88 C 218.60 315.85 228.68 303.65 241.35 295.33 Z" />
<path fill="#3f3d56" opacity="1.00" d=" M 559.03 292.00 C 625.79 292.00 692.55 291.99 759.31 292.01 C 759.30 293.75 759.30 295.50 759.31 297.26 C 692.55 297.24 625.79 297.26 559.03 297.25 C 559.03 295.50 559.03 293.75 559.03 292.00 Z" />
<path fill="#3f3d56" opacity="1.00" d=" M 1058.92 297.55 C 1063.96 297.54 1069.00 297.55 1074.04 297.55 C 1078.87 297.53 1083.71 297.60 1088.55 297.48 C 1088.68 307.44 1088.81 317.42 1088.49 327.38 C 1078.63 327.17 1068.77 327.35 1058.92 327.29 C 1058.91 323.49 1058.91 319.69 1058.92 315.90 C 1058.91 309.78 1058.91 303.67 1058.92 297.55 M 1060.18 298.89 C 1060.23 304.57 1060.19 310.24 1060.21 315.92 C 1060.20 319.27 1060.20 322.62 1060.20 325.98 C 1069.25 326.00 1078.30 325.98 1087.36 325.99 C 1087.36 316.94 1087.36 307.89 1087.36 298.85 C 1082.91 298.84 1078.47 298.84 1074.04 298.84 C 1069.42 298.86 1064.80 298.79 1060.18 298.89 Z" />
<path fill="#3f3d56" opacity="1.00" d=" M 629.88 320.87 C 649.41 320.86 668.94 320.87 688.47 320.86 C 688.47 324.94 688.47 329.02 688.47 333.11 C 668.94 333.11 649.41 333.11 629.88 333.10 C 629.87 329.02 629.87 324.94 629.88 320.87 Z" />
<path fill="#3f3d56" opacity="1.00" d=" M 998.50 361.10 C 1045.58 361.12 1092.67 361.09 1139.75 361.12 C 1139.71 362.90 1139.65 364.68 1139.55 366.46 C 1092.53 366.23 1045.50 366.42 998.48 366.36 C 998.47 364.60 998.48 362.85 998.50 361.10 Z" />
<path fill="#3f3d56" opacity="1.00" d=" M 998.36 382.87 C 998.43 381.12 998.52 379.39 998.63 377.66 C 1045.59 377.74 1092.56 377.83 1139.51 377.61 C 1139.65 379.37 1139.74 381.13 1139.80 382.90 C 1092.66 383.00 1045.50 383.07 998.36 382.87 Z" />
<path fill="#3f3d56" opacity="1.00" d=" M 998.49 394.35 C 1045.56 394.33 1092.63 394.34 1139.71 394.35 C 1139.69 396.09 1139.69 397.83 1139.70 399.58 C 1092.63 399.60 1045.57 399.61 998.50 399.58 C 998.48 397.83 998.48 396.09 998.49 394.35 Z" />
<path fill="#3f3d56" opacity="1.00" d=" M 998.62 416.28 C 998.45 414.48 998.45 412.67 998.59 410.88 C 1045.63 411.09 1092.67 410.85 1139.71 411.00 C 1139.70 412.70 1139.72 414.40 1139.75 416.11 C 1092.71 416.39 1045.66 416.05 998.62 416.28 Z" />
<path fill="#3f3d56" opacity="1.00" d=" M 233.54 413.61 C 241.57 419.89 250.22 425.68 260.09 428.59 C 265.26 429.82 269.98 432.89 275.49 432.20 C 275.90 432.30 276.71 432.50 277.12 432.60 C 275.32 432.94 273.54 433.38 271.73 433.68 L 271.37 433.63 C 269.65 433.31 267.92 433.01 266.17 432.89 C 260.55 432.95 255.86 429.17 250.38 428.77 C 248.85 428.49 247.63 427.54 246.44 426.62 C 247.11 426.69 248.47 426.83 249.14 426.90 C 244.49 424.85 239.93 422.37 236.10 419.01 C 235.27 417.97 234.40 416.97 233.42 416.08 C 233.12 415.81 232.51 415.27 232.21 415.00 C 232.54 414.65 233.21 413.96 233.54 413.61 Z" />
<path fill="#3f3d56" opacity="1.00" d=" M 998.47 427.58 C 1045.58 427.66 1092.70 427.41 1139.80 427.70 C 1139.73 429.40 1139.70 431.11 1139.68 432.82 C 1092.63 432.85 1045.57 432.80 998.52 432.85 C 998.49 431.08 998.47 429.33 998.47 427.58 Z" />
<path fill="#3f3d56" opacity="1.00" d=" M 1048.45 456.45 C 1062.22 456.42 1075.98 456.44 1089.75 456.44 C 1089.76 460.52 1089.76 464.60 1089.75 468.68 C 1075.98 468.68 1062.21 468.70 1048.45 468.67 C 1048.42 464.60 1048.42 460.52 1048.45 456.45 Z" />
<path fill="#3f3d56" opacity="1.00" d=" M 1051.80 505.91 C 1062.82 501.91 1075.02 501.97 1086.26 505.08 C 1099.30 509.31 1110.56 518.30 1117.64 530.03 C 1124.90 542.98 1127.06 558.79 1122.78 573.09 C 1118.04 589.89 1104.73 603.75 1088.35 609.64 C 1077.73 613.22 1066.09 613.71 1055.27 610.71 C 1054.36 610.43 1053.48 610.14 1052.61 609.86 C 1050.33 608.99 1048.00 608.33 1045.68 607.65 C 1042.75 605.86 1039.74 604.18 1036.53 602.96 L 1035.91 602.67 C 1036.10 602.29 1036.48 601.53 1036.67 601.14 C 1035.50 600.30 1034.34 599.46 1033.22 598.59 C 1023.33 589.71 1016.91 577.14 1015.37 563.95 C 1014.76 556.94 1015.11 549.79 1017.07 543.01 C 1021.69 525.97 1035.09 511.63 1051.80 505.91 M 1032.42 520.48 C 1022.02 530.87 1016.18 545.81 1017.24 560.52 C 1017.60 573.21 1023.24 585.52 1032.00 594.63 C 1031.90 596.07 1033.33 596.70 1034.40 597.31 L 1035.97 596.89 C 1041.43 601.96 1048.31 604.99 1055.08 607.93 L 1054.24 608.16 C 1055.39 608.57 1056.56 608.96 1057.74 609.35 C 1069.02 611.78 1081.27 611.03 1091.73 605.95 C 1111.41 597.63 1124.33 576.16 1122.89 554.89 C 1122.24 541.30 1115.98 528.17 1106.08 518.89 C 1095.94 509.40 1081.90 504.27 1068.04 504.84 C 1054.75 505.29 1041.72 510.98 1032.42 520.48 Z" />
<path fill="#3f3d56" opacity="1.00" d=" M 1208.84 608.19 C 1220.17 608.19 1231.50 608.18 1242.83 608.20 C 1242.89 619.05 1242.74 629.91 1242.91 640.77 C 1248.28 640.69 1253.65 640.74 1259.03 640.74 C 1259.01 641.24 1258.98 642.25 1258.96 642.76 C 1247.94 642.50 1236.90 643.22 1225.91 642.50 C 1220.24 641.84 1214.52 642.34 1208.84 642.19 C 1208.83 638.18 1208.83 634.19 1208.83 630.19 C 1208.83 622.86 1208.82 615.52 1208.84 608.19 M 1210.32 630.19 C 1210.31 633.69 1210.31 637.20 1210.32 640.71 C 1215.49 640.66 1220.67 640.83 1225.85 640.60 C 1231.01 640.42 1236.18 640.57 1241.35 640.50 C 1241.33 630.23 1241.35 619.96 1241.34 609.69 C 1231.02 609.65 1220.70 609.74 1210.39 609.64 C 1210.24 616.49 1210.36 623.34 1210.32 630.19 Z" />
<path fill="#3f3d56" opacity="1.00" d=" M 529.75 640.76 C 550.14 640.70 570.54 640.74 590.93 640.74 C 590.93 641.24 590.93 642.24 590.93 642.74 C 570.53 642.73 550.13 642.78 529.73 642.72 C 529.74 642.23 529.74 641.25 529.75 640.76 Z" />
<path fill="#3f3d56" opacity="1.00" d=" M 393.70 721.36 C 398.99 723.86 404.15 726.67 409.66 728.66 C 411.95 729.43 414.37 729.96 416.41 731.35 C 408.36 729.30 400.76 725.70 393.70 721.36 Z" />
<path fill="#3f3d56" opacity="1.00" d=" M 416.81 731.57 C 417.77 731.33 419.68 730.86 420.64 730.62 C 420.82 731.09 421.16 732.03 421.34 732.50 C 434.54 734.54 448.03 734.82 461.26 732.73 C 496.60 732.77 531.94 732.60 567.27 732.81 L 568.06 734.50 C 552.07 735.04 536.05 734.58 520.05 734.73 C 457.68 734.78 395.31 734.73 332.94 734.73 C 326.16 734.53 319.31 735.13 312.56 734.45 L 312.64 732.71 C 348.64 732.86 384.66 732.45 420.65 732.91 C 419.51 732.12 418.15 731.79 416.81 731.57 Z" />
</g>
<g id="#ffc463ff">
<path fill="#ffc463" opacity="1.00" d=" M 915.94 102.25 C 919.58 102.25 923.23 102.25 926.88 102.28 C 926.92 106.20 926.69 110.13 926.99 114.05 C 932.58 114.78 938.26 113.75 943.86 114.58 C 943.92 119.81 943.86 125.03 943.90 130.25 C 934.55 130.30 925.21 130.26 915.87 130.27 C 915.87 125.12 915.87 119.97 915.88 114.82 C 915.88 114.32 915.88 113.32 915.88 112.82 C 915.86 109.30 915.84 105.77 915.94 102.25 Z" />
<path fill="#ffc463" opacity="1.00" d=" M 928.36 102.27 C 933.53 102.25 938.70 102.25 943.87 102.26 C 943.88 105.74 943.89 109.22 943.88 112.71 C 938.71 112.88 933.53 112.76 928.36 112.79 C 928.35 109.28 928.35 105.77 928.36 102.27 Z" />
<path fill="#ffc463" opacity="1.00" d=" M 480.30 108.37 C 484.32 105.78 490.13 109.21 489.93 113.95 C 490.11 118.65 484.37 122.05 480.35 119.53 C 476.09 117.37 476.06 110.57 480.30 108.37 Z" />
<path fill="#ffc463" opacity="1.00" d=" M 170.62 130.08 C 379.65 129.96 588.68 130.03 797.71 130.04 C 797.68 242.03 797.71 354.01 797.70 465.99 C 797.68 469.84 797.78 473.70 797.58 477.55 C 790.95 477.37 784.32 477.51 777.70 477.47 C 777.66 475.74 777.65 474.02 777.63 472.31 C 770.13 471.96 762.61 472.16 755.11 472.20 C 755.01 473.94 754.94 475.69 754.89 477.46 C 750.54 477.47 746.19 477.47 741.85 477.47 C 741.80 475.72 741.76 473.99 741.72 472.26 C 734.22 472.02 726.72 472.11 719.22 472.22 C 719.14 473.96 719.07 475.71 719.04 477.46 C 714.70 477.47 710.35 477.47 706.02 477.47 C 705.95 475.71 705.89 473.96 705.83 472.22 C 698.32 472.12 690.81 472.00 683.31 472.28 C 683.26 474.00 683.22 475.73 683.21 477.46 C 678.85 477.47 674.50 477.47 670.15 477.46 C 670.09 475.69 670.03 473.94 669.95 472.19 C 662.44 472.17 654.92 471.94 647.42 472.32 C 647.40 474.02 647.38 475.72 647.37 477.43 C 643.02 477.50 638.66 477.46 634.31 477.47 C 634.25 475.70 634.18 473.93 634.08 472.18 C 626.75 472.18 619.40 471.98 612.07 472.25 C 610.90 473.67 611.78 475.91 611.47 477.63 C 610.96 477.54 609.94 477.37 609.43 477.28 C 603.00 471.40 595.97 466.24 589.15 460.85 C 449.68 350.54 310.04 240.45 170.62 130.08 M 734.91 137.17 C 734.79 145.36 734.71 153.56 734.95 161.75 C 736.94 161.71 738.94 161.69 740.94 161.67 C 740.94 165.47 740.94 169.26 740.95 173.06 C 750.86 173.03 760.78 173.13 770.70 173.00 C 770.67 163.11 770.70 153.22 770.68 143.33 C 766.89 143.32 763.09 143.32 759.30 143.32 C 759.32 141.27 759.30 139.22 759.25 137.17 C 751.13 137.21 743.02 137.20 734.91 137.17 M 572.10 178.90 C 572.13 181.52 572.13 184.14 572.12 186.77 C 575.39 186.77 578.66 186.77 581.94 186.79 C 582.01 197.29 581.95 207.80 581.97 218.30 C 585.01 218.30 588.06 218.30 591.11 218.30 C 591.11 207.80 591.06 197.30 591.14 186.80 C 593.75 186.76 596.38 186.76 599.00 186.78 C 599.93 184.17 600.82 181.54 601.71 178.92 C 591.84 178.88 581.97 178.91 572.10 178.90 M 607.15 179.22 C 605.40 179.67 604.44 181.31 603.98 182.93 C 603.57 186.79 608.93 189.73 611.64 186.58 C 615.19 183.64 611.38 177.53 607.15 179.22 M 617.62 178.94 C 617.59 192.05 617.67 205.17 617.58 218.29 C 620.62 218.31 623.67 218.31 626.72 218.28 C 626.61 214.82 626.58 211.36 626.71 207.91 C 627.77 207.02 628.83 206.12 629.91 205.23 C 633.00 209.58 636.06 213.96 639.17 218.30 C 642.40 218.29 645.63 218.29 648.86 218.33 C 644.32 212.16 640.10 205.76 635.58 199.58 C 639.18 195.58 643.16 191.95 646.90 188.08 C 643.39 188.11 639.88 188.11 636.38 188.17 C 633.16 191.39 630.02 194.68 626.68 197.77 C 626.61 191.53 626.60 185.29 626.70 179.05 C 623.67 178.90 620.64 178.91 617.62 178.94 M 651.85 186.86 C 655.04 186.76 658.24 186.78 661.44 186.69 C 661.92 197.21 661.55 207.76 661.62 218.29 C 664.67 218.31 667.72 218.31 670.78 218.27 C 670.59 207.77 670.71 197.28 670.72 186.78 C 673.35 186.77 675.99 186.77 678.64 186.77 C 679.49 184.13 680.38 181.51 681.29 178.89 C 671.45 178.91 661.62 178.88 651.79 178.91 C 651.76 181.56 651.77 184.21 651.85 186.86 M 719.97 178.94 C 719.97 192.06 719.96 205.18 719.97 218.30 C 723.00 218.30 726.04 218.30 729.08 218.30 C 729.07 214.91 729.06 211.53 729.09 208.14 C 730.17 207.16 731.23 206.18 732.32 205.20 C 735.62 209.48 738.50 214.07 741.79 218.37 C 744.99 218.27 748.19 218.29 751.40 218.32 C 746.82 212.10 742.46 205.70 738.05 199.35 C 741.89 195.66 745.66 191.89 749.36 188.06 C 745.92 188.12 742.47 188.14 739.03 188.12 C 735.70 191.28 732.67 194.78 729.14 197.73 C 729.00 191.46 729.11 185.20 729.07 178.93 C 726.03 178.93 723.00 178.93 719.97 178.94 M 692.44 186.14 L 692.17 187.00 L 691.71 186.96 C 684.67 187.55 679.27 194.23 678.77 201.04 C 677.82 209.14 684.18 217.63 692.48 218.12 C 695.85 218.37 699.25 218.39 702.63 218.12 C 710.06 217.51 716.28 210.50 716.17 203.05 C 716.75 195.58 711.10 187.69 703.42 187.04 C 700.42 186.24 697.27 186.24 694.22 186.46 L 693.49 185.86 L 692.44 186.14 M 604.01 191.81 C 604.04 200.64 604.06 209.47 604.00 218.29 C 607.03 218.30 610.08 218.30 613.12 218.30 C 613.10 209.47 613.11 200.64 613.12 191.81 C 610.08 191.80 607.04 191.80 604.01 191.81 M 559.02 225.54 C 559.02 227.29 559.04 229.04 559.05 230.79 C 625.80 230.78 692.55 230.79 759.30 230.79 C 759.30 229.04 759.30 227.28 759.32 225.53 C 692.55 225.54 625.79 225.52 559.02 225.54 M 559.05 242.14 C 559.03 243.89 559.02 245.64 559.02 247.40 C 625.79 247.41 692.55 247.39 759.31 247.40 C 759.30 245.65 759.30 243.90 759.31 242.15 C 692.56 242.14 625.80 242.16 559.05 242.14 M 559.03 258.77 C 559.02 260.51 559.03 262.26 559.03 264.01 C 625.79 264.02 692.55 264.02 759.31 264.01 C 759.30 262.26 759.30 260.51 759.31 258.76 C 692.55 258.78 625.79 258.76 559.03 258.77 M 559.07 275.36 C 559.05 277.12 559.05 278.89 559.06 280.66 C 625.82 280.54 692.59 280.79 759.35 280.53 C 759.34 278.85 759.35 277.18 759.37 275.50 C 692.61 275.21 625.83 275.50 559.07 275.36 M 559.03 292.00 C 559.03 293.75 559.03 295.50 559.03 297.25 C 625.79 297.26 692.55 297.24 759.31 297.26 C 759.30 295.50 759.30 293.75 759.31 292.01 C 692.55 291.99 625.79 292.00 559.03 292.00 M 629.88 320.87 C 629.87 324.94 629.87 329.02 629.88 333.10 C 649.41 333.11 668.94 333.11 688.47 333.11 C 688.47 329.02 688.47 324.94 688.47 320.86 C 668.94 320.87 649.41 320.86 629.88 320.87 Z" />
<path fill="#ffc463" opacity="1.00" d=" M 759.32 144.62 C 762.68 144.62 766.03 144.61 769.39 144.62 C 769.46 153.60 769.23 162.60 769.52 171.58 C 760.44 172.00 751.33 171.65 742.24 171.76 C 742.23 168.41 742.23 165.05 742.24 161.70 C 747.97 161.59 753.71 161.93 759.44 161.49 C 759.22 155.87 759.33 150.24 759.32 144.62 Z" />
<path fill="#ffc463" opacity="1.00" d=" M 694.44 194.65 C 699.81 192.14 706.52 197.30 705.79 203.09 C 705.59 209.50 696.95 213.33 692.19 208.86 C 687.13 205.20 688.65 196.65 694.44 194.65 Z" />
<path fill="#ffc463" opacity="1.00" d=" M 971.59 250.04 C 970.83 235.03 983.92 221.11 998.99 221.16 C 1004.82 221.14 1010.67 221.02 1016.52 221.26 C 1013.05 229.22 1019.29 239.16 1027.95 239.45 C 1054.29 239.64 1080.64 239.47 1106.98 239.54 C 1111.56 239.78 1116.25 237.75 1118.90 233.94 C 1121.66 230.29 1121.92 225.38 1120.56 221.13 C 1128.68 221.48 1136.95 220.35 1144.98 221.90 C 1154.85 224.12 1163.08 232.17 1165.62 241.95 C 1166.89 246.53 1166.56 251.34 1166.60 256.04 C 1166.61 360.04 1166.59 464.03 1166.61 568.03 C 1152.51 556.90 1138.39 545.81 1124.36 534.60 C 1122.26 532.87 1119.93 531.47 1117.64 530.03 C 1110.56 518.30 1099.30 509.31 1086.26 505.08 C 1078.80 497.99 1070.22 492.21 1062.31 485.65 C 1036.98 465.66 1011.72 445.58 986.36 425.64 C 981.42 421.96 976.94 417.66 971.62 414.52 C 971.55 359.69 971.61 304.87 971.59 250.04 M 1049.56 291.46 C 1049.52 299.57 1049.63 307.69 1049.50 315.80 C 1052.63 315.95 1055.77 315.96 1058.92 315.90 C 1058.91 319.69 1058.91 323.49 1058.92 327.29 C 1068.77 327.35 1078.63 327.17 1088.49 327.38 C 1088.81 317.42 1088.68 307.44 1088.55 297.48 C 1083.71 297.60 1078.87 297.53 1074.04 297.55 C 1074.02 295.48 1073.98 293.42 1073.92 291.36 C 1065.80 291.52 1057.68 291.35 1049.56 291.46 M 1022.12 335.09 C 1022.10 336.50 1022.08 337.91 1022.08 339.33 C 1023.87 339.35 1025.66 339.36 1027.48 339.38 C 1027.46 345.12 1027.48 350.86 1027.45 356.60 C 1029.11 356.59 1030.80 356.59 1032.48 356.59 C 1032.43 350.85 1032.47 345.12 1032.45 339.39 C 1033.91 339.36 1035.38 339.33 1036.87 339.31 C 1037.33 337.91 1037.80 336.51 1038.30 335.12 C 1032.90 335.07 1027.51 335.10 1022.12 335.09 M 1040.42 335.65 C 1037.84 337.50 1041.26 341.51 1043.55 339.39 C 1046.28 337.57 1042.77 333.40 1040.42 335.65 M 1046.93 335.16 C 1046.85 342.31 1047.26 349.45 1047.10 356.60 C 1048.67 356.60 1050.26 356.61 1051.87 356.62 C 1051.80 354.08 1051.53 351.37 1053.23 349.25 C 1055.40 351.49 1057.02 354.17 1058.90 356.65 C 1060.61 356.61 1062.34 356.58 1064.08 356.56 C 1061.65 353.10 1059.10 349.72 1056.88 346.14 C 1058.95 344.16 1060.98 342.13 1063.00 340.09 C 1061.05 340.10 1059.12 340.13 1057.19 340.17 C 1055.50 341.94 1053.75 343.65 1051.92 345.26 C 1051.82 341.87 1051.86 338.48 1051.89 335.09 C 1050.22 335.11 1048.57 335.13 1046.93 335.16 M 1065.62 335.16 C 1065.65 336.55 1065.70 337.94 1065.75 339.34 C 1067.57 339.35 1069.42 339.39 1071.26 339.49 C 1071.11 345.19 1071.24 350.90 1071.16 356.61 C 1072.84 356.59 1074.53 356.56 1076.23 356.51 C 1076.10 350.78 1076.17 345.06 1076.17 339.33 C 1077.57 339.35 1078.98 339.37 1080.40 339.40 C 1080.89 337.96 1081.39 336.53 1081.90 335.10 C 1076.47 335.11 1071.05 335.02 1065.62 335.16 M 1103.12 335.10 C 1103.13 342.26 1103.17 349.41 1103.08 356.56 C 1104.76 356.57 1106.44 356.58 1108.15 356.60 C 1108.12 354.74 1108.12 352.88 1108.12 351.03 C 1108.58 350.62 1109.48 349.79 1109.93 349.38 C 1111.59 351.68 1113.02 354.14 1114.88 356.30 C 1116.51 356.96 1118.44 356.47 1120.20 356.62 C 1118.02 353.16 1115.44 349.98 1113.25 346.53 C 1114.49 343.96 1117.34 342.33 1119.18 340.12 C 1117.24 340.17 1115.24 339.86 1113.36 340.37 C 1111.54 341.95 1109.95 343.77 1108.15 345.36 C 1108.10 341.94 1108.14 338.52 1108.14 335.11 C 1106.45 335.10 1104.78 335.10 1103.12 335.10 M 1081.38 350.75 C 1082.23 353.85 1085.14 355.92 1088.20 356.52 C 1089.74 356.61 1091.31 356.64 1092.88 356.61 C 1100.40 356.59 1104.11 345.17 1097.44 341.37 C 1094.86 339.24 1091.36 338.83 1088.16 339.33 C 1083.01 340.01 1079.33 345.92 1081.38 350.75 M 1039.53 342.17 C 1039.55 346.98 1039.55 351.79 1039.53 356.60 C 1041.19 356.59 1042.86 356.59 1044.54 356.59 C 1044.51 351.78 1044.51 346.97 1044.54 342.16 C 1042.86 342.15 1041.18 342.16 1039.53 342.17 M 998.50 361.10 C 998.48 362.85 998.47 364.60 998.48 366.36 C 1045.50 366.42 1092.53 366.23 1139.55 366.46 C 1139.65 364.68 1139.71 362.90 1139.75 361.12 C 1092.67 361.09 1045.58 361.12 998.50 361.10 M 998.36 382.87 C 1045.50 383.07 1092.66 383.00 1139.80 382.90 C 1139.74 381.13 1139.65 379.37 1139.51 377.61 C 1092.56 377.83 1045.59 377.74 998.63 377.66 C 998.52 379.39 998.43 381.12 998.36 382.87 M 998.49 394.35 C 998.48 396.09 998.48 397.83 998.50 399.58 C 1045.57 399.61 1092.63 399.60 1139.70 399.58 C 1139.69 397.83 1139.69 396.09 1139.71 394.35 C 1092.63 394.34 1045.56 394.33 998.49 394.35 M 998.62 416.28 C 1045.66 416.05 1092.71 416.39 1139.75 416.11 C 1139.72 414.40 1139.70 412.70 1139.71 411.00 C 1092.67 410.85 1045.63 411.09 998.59 410.88 C 998.45 412.67 998.45 414.48 998.62 416.28 M 998.47 427.58 C 998.47 429.33 998.49 431.08 998.52 432.85 C 1045.57 432.80 1092.63 432.85 1139.68 432.82 C 1139.70 431.11 1139.73 429.40 1139.80 427.70 C 1092.70 427.41 1045.58 427.66 998.47 427.58 M 1048.45 456.45 C 1048.42 460.52 1048.42 464.60 1048.45 468.67 C 1062.21 468.70 1075.98 468.68 1089.75 468.68 C 1089.76 464.60 1089.76 460.52 1089.75 456.44 C 1075.98 456.44 1062.22 456.42 1048.45 456.45 Z" />
<path fill="#ffc463" opacity="1.00" d=" M 1074.04 298.84 C 1078.47 298.84 1082.91 298.84 1087.36 298.85 C 1087.36 307.89 1087.36 316.94 1087.36 325.99 C 1078.30 325.98 1069.25 326.00 1060.20 325.98 C 1060.20 322.62 1060.20 319.27 1060.21 315.92 C 1064.81 315.92 1069.41 315.93 1074.02 315.91 C 1074.05 310.22 1074.02 304.53 1074.04 298.84 Z" />
<path fill="#ffc463" opacity="1.00" d=" M 1089.42 343.52 C 1093.24 342.04 1097.31 347.33 1094.50 350.53 C 1092.74 353.37 1088.25 353.04 1086.76 350.13 C 1085.21 347.72 1086.75 344.30 1089.42 343.52 Z" />
<path fill="#ffc463" opacity="1.00" d=" M 366.00 535.03 C 385.38 531.41 406.78 538.24 419.74 553.25 C 402.17 555.62 385.30 563.17 372.23 575.21 C 353.76 592.55 344.10 618.60 346.22 643.79 C 342.18 642.18 338.97 639.14 335.77 636.30 C 321.71 623.23 314.75 602.99 317.96 584.05 C 319.43 574.32 323.52 565.09 329.39 557.22 C 338.36 545.71 351.57 537.49 366.00 535.03 Z" />
<path fill="#ffc463" opacity="1.00" d=" M 590.98 630.17 C 594.62 630.17 598.27 630.17 601.92 630.19 C 601.92 634.19 601.92 638.19 601.93 642.19 C 607.64 642.35 613.38 641.82 619.06 642.51 C 618.83 647.73 618.97 652.96 618.93 658.19 C 609.60 658.19 600.26 658.19 590.93 658.19 C 590.91 653.04 590.92 647.89 590.93 642.74 C 590.93 642.24 590.93 641.24 590.93 640.74 C 590.91 637.21 590.90 633.69 590.98 630.17 Z" />
<path fill="#ffc463" opacity="1.00" d=" M 603.41 630.19 C 608.58 630.18 613.74 630.18 618.91 630.17 C 618.93 633.64 618.95 637.12 618.97 640.60 C 613.78 640.83 608.59 640.67 603.41 640.70 C 603.40 637.20 603.40 633.69 603.41 630.19 Z" />
<path fill="#ffc463" opacity="1.00" d=" M 1197.92 630.16 C 1201.55 630.18 1205.19 630.17 1208.83 630.19 C 1208.83 634.19 1208.83 638.18 1208.84 642.19 C 1214.52 642.34 1220.24 641.84 1225.91 642.50 C 1225.80 647.71 1225.86 652.93 1225.86 658.14 C 1216.52 658.26 1207.18 658.16 1197.84 658.19 C 1197.83 653.04 1197.83 647.89 1197.84 642.74 C 1197.84 642.24 1197.84 641.24 1197.84 640.74 C 1197.82 637.21 1197.78 633.68 1197.92 630.16 Z" />
<path fill="#ffc463" opacity="1.00" d=" M 1210.32 630.19 C 1215.49 630.18 1220.67 630.17 1225.85 630.19 C 1225.84 633.65 1225.85 637.13 1225.85 640.60 C 1220.67 640.83 1215.49 640.66 1210.32 640.71 C 1210.31 637.20 1210.31 633.69 1210.32 630.19 Z" />
</g>
<g id="#e6b159ff">
<path fill="#e6b159" opacity="1.00" d=" M 170.36 129.87 L 170.62 130.08 C 310.04 240.45 449.68 350.54 589.15 460.85 C 595.97 466.24 603.00 471.40 609.43 477.28 C 605.77 477.59 602.10 477.45 598.44 477.48 C 598.41 475.68 598.34 473.90 598.13 472.12 C 590.71 472.16 583.30 472.12 575.88 472.14 C 575.71 473.90 575.61 475.67 575.58 477.45 C 571.23 477.47 566.88 477.50 562.53 477.41 C 562.06 475.83 563.69 472.17 561.07 472.17 C 508.73 472.08 456.39 472.18 404.05 472.13 C 401.51 472.09 398.97 472.14 396.44 472.29 C 396.41 473.99 396.38 475.69 396.37 477.41 C 392.02 477.51 387.67 477.46 383.33 477.47 C 383.27 475.69 383.17 473.91 383.01 472.15 C 375.59 472.12 368.16 472.14 360.74 472.14 C 360.57 473.92 360.47 475.71 360.40 477.50 C 356.08 477.45 351.75 477.47 347.43 477.47 C 347.40 475.68 347.34 473.91 347.17 472.13 C 339.74 472.14 332.32 472.14 324.90 472.13 C 324.72 473.90 324.62 475.67 324.58 477.45 C 320.24 477.47 315.90 477.48 311.56 477.44 C 311.55 475.64 311.49 473.86 311.26 472.10 C 303.83 472.21 296.40 472.06 288.97 472.18 C 288.85 473.94 288.77 475.70 288.72 477.47 C 284.37 477.46 280.03 477.51 275.68 477.41 C 275.65 475.69 275.62 473.99 275.59 472.29 C 268.09 471.99 260.58 472.13 253.07 472.21 C 253.00 473.96 252.94 475.70 252.89 477.46 C 248.54 477.47 244.19 477.47 239.84 477.47 C 239.80 475.73 239.77 474.01 239.73 472.28 C 232.23 472.01 224.72 472.12 217.21 472.22 C 217.14 473.96 217.08 475.70 217.03 477.46 C 212.69 477.48 208.35 477.47 204.00 477.47 C 203.95 475.71 203.89 473.96 203.81 472.21 C 196.31 472.14 188.80 472.00 181.30 472.28 C 181.26 474.01 181.23 475.74 181.20 477.48 C 177.61 477.45 174.03 477.45 170.45 477.53 C 170.25 361.65 170.44 245.75 170.36 129.87 M 241.35 295.33 C 228.68 303.65 218.60 315.85 212.86 329.88 C 206.24 345.89 205.38 364.19 210.40 380.76 C 206.79 394.44 207.73 409.37 213.77 422.23 C 220.10 436.11 231.94 447.38 246.12 453.02 C 261.69 459.44 279.98 458.73 295.05 451.24 C 306.82 445.41 316.84 435.74 322.44 423.80 C 335.19 416.03 345.63 404.51 351.94 390.96 C 360.42 373.06 361.42 351.82 354.70 333.20 C 345.76 307.50 322.02 287.72 295.08 283.74 C 276.56 280.76 256.96 284.89 241.35 295.33 Z" />
<path fill="#e6b159" opacity="1.00" d=" M 228.68 308.71 C 240.84 295.41 257.98 286.79 275.94 285.15 C 293.38 283.39 311.39 288.12 325.69 298.28 C 338.65 307.39 348.57 320.74 353.47 335.82 C 358.96 352.53 358.22 371.20 351.37 387.41 C 345.86 400.44 336.62 411.99 324.80 419.82 C 326.81 412.68 328.89 405.46 328.83 397.97 C 329.18 380.27 321.16 362.66 307.64 351.24 C 294.33 339.72 275.81 334.62 258.49 337.67 C 237.16 341.21 217.81 357.08 211.68 378.00 C 205.07 353.99 211.63 326.89 228.68 308.71 Z" />
<path fill="#e6b159" opacity="1.00" d=" M 971.62 414.52 C 976.94 417.66 981.42 421.96 986.36 425.64 C 1011.72 445.58 1036.98 465.66 1062.31 485.65 C 1070.22 492.21 1078.80 497.99 1086.26 505.08 C 1075.02 501.97 1062.82 501.91 1051.80 505.91 C 1035.09 511.63 1021.69 525.97 1017.07 543.01 C 1015.11 549.79 1014.76 556.94 1015.37 563.95 C 1013.56 572.13 1012.25 580.68 1014.43 588.95 C 1018.04 605.12 1031.69 618.50 1047.94 621.75 C 1062.33 624.96 1078.10 620.23 1088.35 609.64 C 1104.73 603.75 1118.04 589.89 1122.78 573.09 C 1127.06 558.79 1124.90 542.98 1117.64 530.03 C 1119.93 531.47 1122.26 532.87 1124.36 534.60 C 1138.39 545.81 1152.51 556.90 1166.61 568.03 C 1166.59 581.34 1166.74 594.65 1166.54 607.96 C 1165.97 622.15 1153.18 634.41 1138.96 634.33 C 1092.97 634.41 1046.97 634.33 1000.97 634.37 C 995.60 634.45 990.17 633.26 985.54 630.48 C 976.97 625.56 971.43 615.90 971.58 606.00 C 971.59 542.18 971.50 478.35 971.62 414.52 Z" />
<path fill="#e6b159" opacity="1.00" d=" M 1032.42 520.48 C 1041.72 510.98 1054.75 505.29 1068.04 504.84 C 1081.90 504.27 1095.94 509.40 1106.08 518.89 C 1115.98 528.17 1122.24 541.30 1122.89 554.89 C 1124.33 576.16 1111.41 597.63 1091.73 605.95 C 1097.29 598.48 1100.78 589.37 1100.91 580.01 C 1101.38 565.98 1094.54 552.01 1083.23 543.71 C 1071.84 535.05 1056.08 532.72 1042.63 537.53 C 1031.49 541.33 1022.24 549.91 1017.24 560.52 C 1016.18 545.81 1022.02 530.87 1032.42 520.48 Z" />
</g>
<g id="#f2f2f2ff">
<path fill="#f2f2f2" opacity="1.00" d=" M 734.91 137.17 C 743.02 137.20 751.13 137.21 759.25 137.17 C 759.30 139.22 759.32 141.27 759.30 143.32 C 753.20 143.32 747.09 143.33 740.99 143.31 C 740.90 149.43 740.96 155.55 740.94 161.67 C 738.94 161.69 736.94 161.71 734.95 161.75 C 734.71 153.56 734.79 145.36 734.91 137.17 Z" />
<path fill="#f2f2f2" opacity="1.00" d=" M 742.22 144.65 C 747.92 144.59 753.62 144.63 759.32 144.62 C 759.33 150.24 759.22 155.87 759.44 161.49 C 753.71 161.93 747.97 161.59 742.24 161.70 C 742.23 156.02 742.25 150.33 742.22 144.65 Z" />
<path fill="#f2f2f2" opacity="1.00" d=" M 1049.56 291.46 C 1057.68 291.35 1065.80 291.52 1073.92 291.36 C 1073.98 293.42 1074.02 295.48 1074.04 297.55 C 1069.00 297.55 1063.96 297.54 1058.92 297.55 C 1058.91 303.67 1058.91 309.78 1058.92 315.90 C 1055.77 315.96 1052.63 315.95 1049.50 315.80 C 1049.63 307.69 1049.52 299.57 1049.56 291.46 Z" />
<path fill="#f2f2f2" opacity="1.00" d=" M 1060.18 298.89 C 1064.80 298.79 1069.42 298.86 1074.04 298.84 C 1074.02 304.53 1074.05 310.22 1074.02 315.91 C 1069.41 315.93 1064.81 315.92 1060.21 315.92 C 1060.19 310.24 1060.23 304.57 1060.18 298.89 Z" />
<path fill="#f2f2f2" opacity="1.00" d=" M 258.49 337.67 C 275.81 334.62 294.33 339.72 307.64 351.24 C 321.16 362.66 329.18 380.27 328.83 397.97 C 328.89 405.46 326.81 412.68 324.80 419.82 C 320.01 423.24 314.74 425.95 309.23 427.99 C 304.15 426.68 298.93 428.22 294.33 430.39 C 288.32 430.73 282.28 430.78 276.28 430.39 C 280.18 426.29 282.32 420.62 282.28 414.98 C 282.33 407.30 282.20 399.62 282.35 391.94 C 287.50 395.50 293.71 397.30 299.94 397.56 C 299.98 393.67 299.97 389.78 299.86 385.89 C 299.16 385.81 297.75 385.66 297.05 385.59 C 296.91 384.96 296.64 383.70 296.50 383.08 C 292.68 382.67 288.93 381.61 285.69 379.48 L 285.39 379.19 C 283.86 376.17 282.71 372.95 282.27 369.58 C 281.34 369.10 280.41 368.64 279.50 368.14 C 279.42 367.63 279.25 366.62 279.17 366.11 C 274.96 366.02 270.76 366.03 266.55 366.05 C 266.53 381.72 266.59 397.39 266.53 413.06 C 266.80 417.25 263.20 420.55 259.46 421.71 C 256.54 422.91 253.39 421.84 250.48 421.15 C 250.31 420.98 249.95 420.63 249.78 420.45 C 249.39 416.83 248.59 412.41 251.61 409.64 C 254.42 406.47 258.80 406.26 262.72 406.43 C 262.45 402.29 263.31 397.95 262.25 393.92 C 261.62 393.81 260.36 393.59 259.74 393.48 C 259.67 392.56 259.61 391.65 259.55 390.75 C 253.08 390.52 246.09 391.54 241.02 395.91 C 236.77 399.42 233.76 404.57 233.17 410.08 C 232.62 412.40 234.78 413.52 236.27 414.75 C 242.81 420.00 250.16 424.28 257.99 427.27 C 262.17 428.71 266.44 430.64 270.94 429.25 L 269.15 429.68 C 269.86 430.31 270.59 430.94 271.32 431.56 C 272.08 431.65 273.60 431.82 274.35 431.91 L 275.49 432.20 C 269.98 432.89 265.26 429.82 260.09 428.59 C 250.22 425.68 241.57 419.89 233.54 413.61 L 233.27 413.34 C 232.62 408.63 228.10 406.17 225.61 402.49 C 222.21 398.90 221.26 393.20 216.53 390.94 C 214.53 386.78 212.85 382.46 211.68 378.00 C 217.81 357.08 237.16 341.21 258.49 337.67 Z" />
<path fill="#f2f2f2" opacity="1.00" d=" M 210.40 380.76 C 211.55 384.61 213.11 388.32 214.71 392.01 C 214.85 392.39 215.14 393.15 215.28 393.53 C 215.27 397.60 218.00 400.79 220.12 403.99 C 224.06 409.34 228.29 414.61 233.75 418.48 C 234.95 422.67 237.68 426.14 240.93 428.95 C 247.50 436.34 258.37 438.61 267.70 435.95 C 268.03 435.89 268.68 435.76 269.01 435.69 C 281.02 437.12 293.45 436.69 305.02 432.89 C 306.30 432.50 307.20 431.43 308.25 430.66 C 308.47 430.56 308.90 430.36 309.11 430.27 C 313.66 428.35 318.21 426.38 322.44 423.80 C 316.84 435.74 306.82 445.41 295.05 451.24 C 279.98 458.73 261.69 459.44 246.12 453.02 C 231.94 447.38 220.10 436.11 213.77 422.23 C 207.73 409.37 206.79 394.44 210.40 380.76 Z" />
<path fill="#f2f2f2" opacity="1.00" d=" M 1042.63 537.53 C 1056.08 532.72 1071.84 535.05 1083.23 543.71 C 1094.54 552.01 1101.38 565.98 1100.91 580.01 C 1100.78 589.37 1097.29 598.48 1091.73 605.95 C 1081.27 611.03 1069.02 611.78 1057.74 609.35 C 1062.09 609.44 1065.19 605.59 1067.05 602.09 C 1069.10 598.40 1068.69 594.09 1068.71 590.04 C 1068.67 585.77 1068.73 581.50 1068.64 577.24 C 1072.51 580.00 1077.17 581.27 1081.87 581.69 C 1081.93 578.80 1081.94 575.92 1081.95 573.03 C 1081.57 572.94 1080.81 572.76 1080.43 572.68 C 1080.07 572.24 1079.36 571.37 1079.00 570.94 C 1076.18 570.07 1073.10 569.60 1070.89 567.49 C 1070.04 566.38 1069.29 565.21 1068.54 564.08 C 1068.50 562.91 1068.48 561.76 1068.47 560.61 C 1068.03 560.55 1067.16 560.43 1066.72 560.38 C 1066.65 559.81 1066.52 558.68 1066.45 558.12 C 1063.34 558.07 1060.24 558.06 1057.14 558.07 C 1057.13 569.39 1057.19 580.71 1057.14 592.03 C 1057.25 594.66 1056.15 597.44 1053.74 598.72 C 1051.00 600.48 1047.67 599.67 1044.71 599.16 C 1044.34 596.16 1043.47 592.37 1046.30 590.23 C 1048.36 587.98 1051.57 588.31 1054.34 588.17 C 1054.04 585.20 1055.15 581.55 1053.70 579.02 C 1053.41 578.89 1052.84 578.61 1052.56 578.47 C 1052.24 577.99 1051.59 577.02 1051.27 576.54 C 1040.95 574.99 1030.70 584.04 1032.00 594.63 C 1023.24 585.52 1017.60 573.21 1017.24 560.52 C 1022.24 549.91 1031.49 541.33 1042.63 537.53 Z" />
<path fill="#f2f2f2" opacity="1.00" d=" M 1015.37 563.95 C 1016.91 577.14 1023.33 589.71 1033.22 598.59 C 1033.83 601.41 1035.82 603.51 1038.05 605.20 C 1042.45 609.85 1049.01 611.63 1055.27 610.71 C 1066.09 613.71 1077.73 613.22 1088.35 609.64 C 1078.10 620.23 1062.33 624.96 1047.94 621.75 C 1031.69 618.50 1018.04 605.12 1014.43 588.95 C 1012.25 580.68 1013.56 572.13 1015.37 563.95 Z" />
</g>
<g id="#000000ff">
<path fill="#000000" opacity="1.00" d=" M 572.10 178.90 C 581.97 178.91 591.84 178.88 601.71 178.92 C 600.82 181.54 599.93 184.17 599.00 186.78 C 596.38 186.76 593.75 186.76 591.14 186.80 C 591.06 197.30 591.11 207.80 591.11 218.30 C 588.06 218.30 585.01 218.30 581.97 218.30 C 581.95 207.80 582.01 197.29 581.94 186.79 C 578.66 186.77 575.39 186.77 572.12 186.77 C 572.13 184.14 572.13 181.52 572.10 178.90 Z" />
<path fill="#000000" opacity="1.00" d=" M 607.15 179.22 C 611.38 177.53 615.19 183.64 611.64 186.58 C 608.93 189.73 603.57 186.79 603.98 182.93 C 604.44 181.31 605.40 179.67 607.15 179.22 Z" />
<path fill="#000000" opacity="1.00" d=" M 617.62 178.94 C 620.64 178.91 623.67 178.90 626.70 179.05 C 626.60 185.29 626.61 191.53 626.68 197.77 C 630.02 194.68 633.16 191.39 636.38 188.17 C 639.88 188.11 643.39 188.11 646.90 188.08 C 643.16 191.95 639.18 195.58 635.58 199.58 C 640.10 205.76 644.32 212.16 648.86 218.33 C 645.63 218.29 642.40 218.29 639.17 218.30 C 636.06 213.96 633.00 209.58 629.91 205.23 C 628.83 206.12 627.77 207.02 626.71 207.91 C 626.58 211.36 626.61 214.82 626.72 218.28 C 623.67 218.31 620.62 218.31 617.58 218.29 C 617.67 205.17 617.59 192.05 617.62 178.94 Z" />
<path fill="#000000" opacity="1.00" d=" M 651.85 186.86 C 651.77 184.21 651.76 181.56 651.79 178.91 C 661.62 178.88 671.45 178.91 681.29 178.89 C 680.38 181.51 679.49 184.13 678.64 186.77 C 675.99 186.77 673.35 186.77 670.72 186.78 C 670.71 197.28 670.59 207.77 670.78 218.27 C 667.72 218.31 664.67 218.31 661.62 218.29 C 661.55 207.76 661.92 197.21 661.44 186.69 C 658.24 186.78 655.04 186.76 651.85 186.86 Z" />
<path fill="#000000" opacity="1.00" d=" M 719.97 178.94 C 723.00 178.93 726.03 178.93 729.07 178.93 C 729.11 185.20 729.00 191.46 729.14 197.73 C 732.67 194.78 735.70 191.28 739.03 188.12 C 742.47 188.14 745.92 188.12 749.36 188.06 C 745.66 191.89 741.89 195.66 738.05 199.35 C 742.46 205.70 746.82 212.10 751.40 218.32 C 748.19 218.29 744.99 218.27 741.79 218.37 C 738.50 214.07 735.62 209.48 732.32 205.20 C 731.23 206.18 730.17 207.16 729.09 208.14 C 729.06 211.53 729.07 214.91 729.08 218.30 C 726.04 218.30 723.00 218.30 719.97 218.30 C 719.96 205.18 719.97 192.06 719.97 178.94 Z" />
<path fill="#000000" opacity="1.00" d=" M 694.22 186.46 C 697.27 186.24 700.42 186.24 703.42 187.04 C 709.62 189.79 714.42 196.07 713.94 203.06 C 713.88 209.92 708.80 215.70 702.63 218.12 C 699.25 218.39 695.85 218.37 692.48 218.12 C 685.83 215.72 680.55 209.24 681.06 201.96 C 680.96 195.26 685.82 189.58 691.71 186.96 L 692.17 187.00 C 692.68 186.87 693.70 186.60 694.22 186.46 M 694.44 194.65 C 688.65 196.65 687.13 205.20 692.19 208.86 C 696.95 213.33 705.59 209.50 705.79 203.09 C 706.52 197.30 699.81 192.14 694.44 194.65 Z" />
<path fill="#000000" opacity="1.00" d=" M 604.01 191.81 C 607.04 191.80 610.08 191.80 613.12 191.81 C 613.11 200.64 613.10 209.47 613.12 218.30 C 610.08 218.30 607.03 218.30 604.00 218.29 C 604.06 209.47 604.04 200.64 604.01 191.81 Z" />
<path fill="#000000" opacity="1.00" d=" M 1022.12 335.09 C 1027.51 335.10 1032.90 335.07 1038.30 335.12 C 1037.80 336.51 1037.33 337.91 1036.87 339.31 C 1035.38 339.33 1033.91 339.36 1032.45 339.39 C 1032.47 345.12 1032.43 350.85 1032.48 356.59 C 1030.80 356.59 1029.11 356.59 1027.45 356.60 C 1027.48 350.86 1027.46 345.12 1027.48 339.38 C 1025.66 339.36 1023.87 339.35 1022.08 339.33 C 1022.08 337.91 1022.10 336.50 1022.12 335.09 Z" />
<path fill="#000000" opacity="1.00" d=" M 1040.42 335.65 C 1042.77 333.40 1046.28 337.57 1043.55 339.39 C 1041.26 341.51 1037.84 337.50 1040.42 335.65 Z" />
<path fill="#000000" opacity="1.00" d=" M 1046.93 335.16 C 1048.57 335.13 1050.22 335.11 1051.89 335.09 C 1051.86 338.48 1051.82 341.87 1051.92 345.26 C 1053.75 343.65 1055.50 341.94 1057.19 340.17 C 1059.12 340.13 1061.05 340.10 1063.00 340.09 C 1060.98 342.13 1058.95 344.16 1056.88 346.14 C 1059.10 349.72 1061.65 353.10 1064.08 356.56 C 1062.34 356.58 1060.61 356.61 1058.90 356.65 C 1057.02 354.17 1055.40 351.49 1053.23 349.25 C 1051.53 351.37 1051.80 354.08 1051.87 356.62 C 1050.26 356.61 1048.67 356.60 1047.10 356.60 C 1047.26 349.45 1046.85 342.31 1046.93 335.16 Z" />
<path fill="#000000" opacity="1.00" d=" M 1065.62 335.16 C 1071.05 335.02 1076.47 335.11 1081.90 335.10 C 1081.39 336.53 1080.89 337.96 1080.40 339.40 C 1078.98 339.37 1077.57 339.35 1076.17 339.33 C 1076.17 345.06 1076.10 350.78 1076.23 356.51 C 1074.53 356.56 1072.84 356.59 1071.16 356.61 C 1071.24 350.90 1071.11 345.19 1071.26 339.49 C 1069.42 339.39 1067.57 339.35 1065.75 339.34 C 1065.70 337.94 1065.65 336.55 1065.62 335.16 Z" />
<path fill="#000000" opacity="1.00" d=" M 1103.12 335.10 C 1104.78 335.10 1106.45 335.10 1108.14 335.11 C 1108.14 338.52 1108.10 341.94 1108.15 345.36 C 1109.95 343.77 1111.54 341.95 1113.36 340.37 C 1115.24 339.86 1117.24 340.17 1119.18 340.12 C 1117.34 342.33 1114.49 343.96 1113.25 346.53 C 1115.44 349.98 1118.02 353.16 1120.20 356.62 C 1118.44 356.47 1116.51 356.96 1114.88 356.30 C 1113.02 354.14 1111.59 351.68 1109.93 349.38 C 1109.48 349.79 1108.58 350.62 1108.12 351.03 C 1108.12 352.88 1108.12 354.74 1108.15 356.60 C 1106.44 356.58 1104.76 356.57 1103.08 356.56 C 1103.17 349.41 1103.13 342.26 1103.12 335.10 Z" />
<path fill="#000000" opacity="1.00" d=" M 1088.16 339.33 C 1091.36 338.83 1094.86 339.24 1097.44 341.37 C 1098.83 343.62 1100.21 346.17 1099.79 348.92 C 1099.54 352.73 1096.37 355.60 1092.88 356.61 C 1091.31 356.64 1089.74 356.61 1088.20 356.52 C 1083.53 355.17 1080.28 349.94 1082.03 345.21 C 1082.81 342.24 1085.46 340.41 1088.16 339.33 M 1089.42 343.52 C 1086.75 344.30 1085.21 347.72 1086.76 350.13 C 1088.25 353.04 1092.74 353.37 1094.50 350.53 C 1097.31 347.33 1093.24 342.04 1089.42 343.52 Z" />
<path fill="#000000" opacity="1.00" d=" M 1039.53 342.17 C 1041.18 342.16 1042.86 342.15 1044.54 342.16 C 1044.51 346.97 1044.51 351.78 1044.54 356.59 C 1042.86 356.59 1041.19 356.59 1039.53 356.60 C 1039.55 351.79 1039.55 346.98 1039.53 342.17 Z" />
<path fill="#000000" opacity="1.00" d=" M 269.63 368.67 C 272.96 368.67 276.28 368.68 279.61 368.79 C 280.31 372.77 282.33 376.52 285.39 379.19 L 285.69 379.48 C 288.58 382.59 292.39 384.77 296.58 385.51 C 296.71 388.53 296.76 391.55 296.74 394.57 C 290.56 394.43 284.47 392.55 279.35 389.09 C 279.17 397.40 279.57 405.72 279.13 414.02 C 278.85 419.79 275.95 425.14 271.78 429.04 L 270.94 429.25 C 266.44 430.64 262.17 428.71 257.99 427.27 C 250.16 424.28 242.81 420.00 236.27 414.75 C 236.03 407.37 240.72 400.53 246.89 396.82 C 250.75 394.47 255.30 393.79 259.74 393.48 C 259.72 396.81 259.73 400.15 259.77 403.49 C 256.32 403.42 252.50 403.32 249.72 405.73 C 244.85 409.09 245.16 416.99 249.78 420.45 C 249.95 420.63 250.31 420.98 250.48 421.15 C 253.55 425.08 258.90 425.43 263.41 424.31 C 266.77 423.01 269.73 419.81 269.59 416.03 C 269.66 400.24 269.55 384.46 269.63 368.67 Z" />
<path fill="#000000" opacity="1.00" d=" M 236.70 421.18 C 240.33 422.24 243.27 424.67 246.44 426.62 C 247.63 427.54 248.85 428.49 250.38 428.77 C 254.77 430.20 259.01 432.10 263.55 433.07 L 264.28 433.38 C 260.60 433.56 256.93 434.78 253.25 433.92 C 248.77 433.40 244.66 431.40 240.93 428.95 C 239.15 426.58 237.55 424.04 236.70 421.18 Z" />
<path fill="#000000" opacity="1.00" d=" M 1059.40 560.25 C 1061.83 560.25 1064.28 560.20 1066.72 560.38 C 1067.16 560.43 1068.03 560.55 1068.47 560.61 C 1068.48 561.76 1068.50 562.91 1068.54 564.08 C 1069.29 565.21 1070.04 566.38 1070.89 567.49 C 1072.98 570.13 1076.02 571.99 1079.39 572.46 C 1079.54 574.79 1079.63 577.13 1079.67 579.47 C 1074.97 579.16 1070.41 577.73 1066.45 575.18 C 1066.45 581.11 1066.55 587.04 1066.43 592.97 C 1066.46 599.66 1061.83 606.53 1055.08 607.93 C 1048.31 604.99 1041.43 601.96 1035.97 596.89 L 1034.40 597.31 C 1034.24 593.82 1034.33 590.15 1036.33 587.13 C 1039.32 581.63 1045.49 578.61 1051.62 578.53 C 1051.73 580.88 1051.82 583.24 1051.90 585.60 C 1049.58 585.73 1047.17 585.77 1045.13 587.01 C 1040.70 589.73 1041.02 595.95 1044.71 599.16 C 1046.76 600.87 1049.23 602.43 1052.04 602.15 C 1055.78 602.03 1059.61 598.96 1059.40 594.99 C 1059.45 583.41 1059.41 571.83 1059.40 560.25 Z" />
</g>
<g id="#a7a97aff">
<path fill="#a7a97a" opacity="1.00" d=" M 692.44 186.14 L 693.49 185.86 L 694.22 186.46 C 693.70 186.60 692.68 186.87 692.17 187.00 L 692.44 186.14 Z" />
</g>
<g id="#6cb9b7ff">
<path fill="#6cb9b7" opacity="1.00" d=" M 678.77 201.04 C 679.27 194.23 684.67 187.55 691.71 186.96 C 685.82 189.58 680.96 195.26 681.06 201.96 C 680.55 209.24 685.83 215.72 692.48 218.12 C 684.18 217.63 677.82 209.14 678.77 201.04 Z" />
</g>
<g id="#e1284eff">
<path fill="#e1284e" opacity="1.00" d=" M 703.42 187.04 C 711.10 187.69 716.75 195.58 716.17 203.05 C 716.28 210.50 710.06 217.51 702.63 218.12 C 708.80 215.70 713.88 209.92 713.94 203.06 C 714.42 196.07 709.62 189.79 703.42 187.04 Z" />
</g>
<g id="#00fffcff">
<path fill="#00fffc" opacity="1.00" d=" M 1081.38 350.75 C 1079.33 345.92 1083.01 340.01 1088.16 339.33 C 1085.46 340.41 1082.81 342.24 1082.03 345.21 C 1080.28 349.94 1083.53 355.17 1088.20 356.52 C 1085.14 355.92 1082.23 353.85 1081.38 350.75 Z" />
<path fill="#00fffc" opacity="1.00" d=" M 266.55 366.05 C 270.76 366.03 274.96 366.02 279.17 366.11 C 279.25 366.62 279.42 367.63 279.50 368.14 L 279.61 368.79 C 276.28 368.68 272.96 368.67 269.63 368.67 C 269.55 384.46 269.66 400.24 269.59 416.03 C 269.73 419.81 266.77 423.01 263.41 424.31 C 258.90 425.43 253.55 425.08 250.48 421.15 C 253.39 421.84 256.54 422.91 259.46 421.71 C 263.20 420.55 266.80 417.25 266.53 413.06 C 266.59 397.39 266.53 381.72 266.55 366.05 Z" />
</g>
<g id="#fe0052ff">
<path fill="#fe0052" opacity="1.00" d=" M 1097.44 341.37 C 1104.11 345.17 1100.40 356.59 1092.88 356.61 C 1096.37 355.60 1099.54 352.73 1099.79 348.92 C 1100.21 346.17 1098.83 343.62 1097.44 341.37 Z" />
<path fill="#fe0052" opacity="1.00" d=" M 279.50 368.14 C 280.41 368.64 281.34 369.10 282.27 369.58 C 282.71 372.95 283.86 376.17 285.39 379.19 C 282.33 376.52 280.31 372.77 279.61 368.79 L 279.50 368.14 Z" />
<path fill="#fe0052" opacity="1.00" d=" M 296.58 385.51 L 297.05 385.59 C 297.75 385.66 299.16 385.81 299.86 385.89 C 299.97 389.78 299.98 393.67 299.94 397.56 C 293.71 397.30 287.50 395.50 282.35 391.94 C 282.20 399.62 282.33 407.30 282.28 414.98 C 282.32 420.62 280.18 426.29 276.28 430.39 C 275.80 430.77 274.83 431.53 274.35 431.91 C 273.60 431.82 272.08 431.65 271.32 431.56 C 270.59 430.94 269.86 430.31 269.15 429.68 L 270.94 429.25 L 271.78 429.04 C 275.95 425.14 278.85 419.79 279.13 414.02 C 279.57 405.72 279.17 397.40 279.35 389.09 C 284.47 392.55 290.56 394.43 296.74 394.57 C 296.76 391.55 296.71 388.53 296.58 385.51 Z" />
<path fill="#fe0052" opacity="1.00" d=" M 1038.05 605.20 C 1040.73 606.84 1043.61 608.36 1046.86 608.39 C 1048.76 608.92 1050.67 609.38 1052.61 609.86 C 1053.48 610.14 1054.36 610.43 1055.27 610.71 C 1049.01 611.63 1042.45 609.85 1038.05 605.20 Z" />
</g>
<g id="#00fefaff">
<path fill="#00fefa" opacity="1.00" d=" M 285.69 379.48 C 288.93 381.61 292.68 382.67 296.50 383.08 C 296.64 383.70 296.91 384.96 297.05 385.59 L 296.58 385.51 C 292.39 384.77 288.58 382.59 285.69 379.48 Z" />
<path fill="#00fefa" opacity="1.00" d=" M 233.42 416.08 C 234.40 416.97 235.27 417.97 236.10 419.01 C 236.29 419.73 236.49 420.45 236.70 421.18 C 237.55 424.04 239.15 426.58 240.93 428.95 C 237.68 426.14 234.95 422.67 233.75 418.48 C 233.67 417.88 233.50 416.68 233.42 416.08 Z" />
<path fill="#00fefa" opacity="1.00" d=" M 1070.89 567.49 C 1073.10 569.60 1076.18 570.07 1079.00 570.94 C 1079.36 571.37 1080.07 572.24 1080.43 572.68 C 1080.17 572.62 1079.65 572.51 1079.39 572.46 C 1076.02 571.99 1072.98 570.13 1070.89 567.49 Z" />
<path fill="#00fefa" opacity="1.00" d=" M 1032.00 594.63 C 1030.70 584.04 1040.95 574.99 1051.27 576.54 C 1051.59 577.02 1052.24 577.99 1052.56 578.47 C 1052.32 578.49 1051.85 578.52 1051.62 578.53 C 1045.49 578.61 1039.32 581.63 1036.33 587.13 C 1034.33 590.15 1034.24 593.82 1034.40 597.31 C 1033.33 596.70 1031.90 596.07 1032.00 594.63 Z" />
</g>
<g id="#b2b2b4ca">
<path fill="#b2b2b4" opacity="0.79" d=" M 216.53 390.94 C 221.26 393.20 222.21 398.90 225.61 402.49 C 228.10 406.17 232.62 408.63 233.27 413.34 C 226.58 407.33 221.16 400.00 217.06 392.02 L 216.53 390.94 Z" />
</g>
<g id="#00f9f1ff">
<path fill="#00f9f1" opacity="1.00" d=" M 241.02 395.91 C 246.09 391.54 253.08 390.52 259.55 390.75 C 259.61 391.65 259.67 392.56 259.74 393.48 C 255.30 393.79 250.75 394.47 246.89 396.82 C 240.72 400.53 236.03 407.37 236.27 414.75 C 234.78 413.52 232.62 412.40 233.17 410.08 C 233.76 404.57 236.77 399.42 241.02 395.91 Z" />
</g>
<g id="#424053d1">
<path fill="#424053" opacity="0.82" d=" M 214.71 392.01 C 215.29 392.01 216.47 392.01 217.06 392.02 C 221.16 400.00 226.58 407.33 233.27 413.34 L 233.54 413.61 C 233.21 413.96 232.54 414.65 232.21 415.00 C 225.10 409.15 219.87 401.42 215.28 393.53 C 215.14 393.15 214.85 392.39 214.71 392.01 Z" />
</g>
<g id="#b6b6b7cb">
<path fill="#b6b6b7" opacity="0.80" d=" M 215.28 393.53 C 219.87 401.42 225.10 409.15 232.21 415.00 C 232.51 415.27 233.12 415.81 233.42 416.08 C 233.50 416.68 233.67 417.88 233.75 418.48 C 228.29 414.61 224.06 409.34 220.12 403.99 C 218.00 400.79 215.27 397.60 215.28 393.53 Z" />
</g>
<g id="#ff0054ff">
<path fill="#ff0054" opacity="1.00" d=" M 259.74 393.48 C 260.36 393.59 261.62 393.81 262.25 393.92 C 263.31 397.95 262.45 402.29 262.72 406.43 C 258.80 406.26 254.42 406.47 251.61 409.64 C 248.59 412.41 249.39 416.83 249.78 420.45 C 245.16 416.99 244.85 409.09 249.72 405.73 C 252.50 403.32 256.32 403.42 259.77 403.49 C 259.73 400.15 259.72 396.81 259.74 393.48 Z" />
</g>
<g id="#cdc584ff">
<path fill="#cdc584" opacity="1.00" d=" M 236.10 419.01 C 239.93 422.37 244.49 424.85 249.14 426.90 C 248.47 426.83 247.11 426.69 246.44 426.62 C 243.27 424.67 240.33 422.24 236.70 421.18 C 236.49 420.45 236.29 419.73 236.10 419.01 Z" />
<path fill="#cdc584" opacity="1.00" d=" M 447.44 594.54 C 450.53 596.14 450.38 599.43 450.66 602.40 C 452.55 605.40 454.86 608.19 457.37 610.70 C 459.97 613.51 463.47 608.65 466.16 610.86 C 469.57 613.23 471.32 617.17 473.80 620.40 C 476.58 616.86 479.42 613.34 481.55 609.36 C 482.71 609.79 483.89 610.14 485.10 610.47 C 486.50 610.78 487.92 611.05 489.36 611.28 C 489.54 612.20 489.73 613.13 489.92 614.08 C 490.76 619.06 491.36 624.11 491.22 629.19 C 489.11 628.92 487.01 628.66 484.95 628.16 C 477.84 626.35 471.30 622.88 465.39 618.60 C 463.77 623.12 464.34 627.96 463.53 632.59 C 457.43 638.20 453.84 645.82 450.28 653.17 C 449.54 646.09 450.33 638.98 449.98 631.90 C 450.28 630.09 448.85 629.12 447.47 628.39 C 447.28 617.11 447.46 605.82 447.44 594.54 Z" />
</g>
<g id="#c4c3c4d6">
<path fill="#c4c3c4" opacity="0.84" d=" M 294.33 430.39 C 298.93 428.22 304.15 426.68 309.23 427.99 L 308.36 428.30 C 305.07 429.40 301.74 430.42 298.35 431.15 C 297.34 430.96 295.33 430.58 294.33 430.39 Z" />
</g>
<g id="#ded9a0ff">
<path fill="#ded9a0" opacity="1.00" d=" M 250.38 428.77 C 255.86 429.17 260.55 432.95 266.17 432.89 C 265.52 432.94 264.21 433.03 263.55 433.07 C 259.01 432.10 254.77 430.20 250.38 428.77 Z" />
<path fill="#ded9a0" opacity="1.00" d=" M 1045.68 607.65 C 1048.00 608.33 1050.33 608.99 1052.61 609.86 C 1050.67 609.38 1048.76 608.92 1046.86 608.39 L 1045.68 607.65 Z" />
<path fill="#ded9a0" opacity="1.00" d=" M 361.36 647.03 C 359.76 636.69 359.45 625.72 363.59 615.91 C 363.12 620.39 362.86 624.91 363.47 629.40 C 361.74 650.31 369.24 671.66 383.08 687.33 C 395.13 701.56 412.38 711.23 430.68 714.56 C 437.99 716.15 445.54 715.50 452.97 715.49 C 461.13 714.64 469.17 712.37 476.66 709.00 C 478.37 708.77 480.11 708.62 481.84 708.46 C 481.70 708.91 481.41 709.80 481.27 710.24 C 470.70 714.62 459.57 718.40 447.96 717.94 C 421.53 719.32 395.74 706.16 379.10 686.00 C 370.26 674.63 363.75 661.29 361.36 647.03 Z" />
</g>
<g id="#ff0056ff">
<path fill="#ff0056" opacity="1.00" d=" M 240.93 428.95 C 244.66 431.40 248.77 433.40 253.25 433.92 C 256.93 434.78 260.60 433.56 264.28 433.38 C 265.53 434.07 266.58 435.06 267.70 435.95 C 258.37 438.61 247.50 436.34 240.93 428.95 Z" />
</g>
<g id="#3e3d51d8">
<path fill="#3e3d51" opacity="0.85" d=" M 298.35 431.15 C 301.74 430.42 305.07 429.40 308.36 428.30 L 309.11 430.27 C 308.90 430.36 308.47 430.56 308.25 430.66 C 296.49 434.24 283.92 436.03 271.73 433.68 C 273.54 433.38 275.32 432.94 277.12 432.60 C 284.21 433.46 291.39 432.59 298.35 431.15 Z" />
</g>
<g id="#a39fa4c8">
<path fill="#a39fa4" opacity="0.78" d=" M 274.35 431.91 C 274.83 431.53 275.80 430.77 276.28 430.39 C 282.28 430.78 288.32 430.73 294.33 430.39 C 295.33 430.58 297.34 430.96 298.35 431.15 C 291.39 432.59 284.21 433.46 277.12 432.60 C 276.71 432.50 275.90 432.30 275.49 432.20 L 274.35 431.91 Z" />
</g>
<g id="#a5a4a8cb">
<path fill="#a5a4a8" opacity="0.80" d=" M 271.73 433.68 C 283.92 436.03 296.49 434.24 308.25 430.66 C 307.20 431.43 306.30 432.50 305.02 432.89 C 293.45 436.69 281.02 437.12 269.01 435.69 C 269.81 435.02 270.60 434.33 271.37 433.63 L 271.73 433.68 Z" />
</g>
<g id="#f0608efa">
<path fill="#f0608e" opacity="0.98" d=" M 263.55 433.07 C 264.21 433.03 265.52 432.94 266.17 432.89 C 267.92 433.01 269.65 433.31 271.37 433.63 C 270.60 434.33 269.81 435.02 269.01 435.69 C 268.68 435.76 268.03 435.89 267.70 435.95 C 266.58 435.06 265.53 434.07 264.28 433.38 L 263.55 433.07 Z" />
</g>
<g id="#d29d41ff">
<path fill="#d29d41" opacity="1.00" d=" M 490.45 541.06 C 491.08 541.69 491.72 542.32 492.37 542.96 L 492.35 543.74 C 491.94 549.30 493.25 554.80 494.91 560.06 C 496.02 562.97 497.21 566.24 500.06 567.88 C 506.20 571.76 513.43 573.13 520.33 575.04 C 515.77 575.44 510.74 575.26 506.77 577.86 C 504.31 580.40 503.11 584.10 503.59 587.61 C 502.31 589.77 501.19 592.03 500.10 594.30 C 499.19 596.19 498.19 598.17 498.44 600.34 C 497.47 601.52 496.50 602.69 495.54 603.87 C 494.35 594.83 490.95 585.98 485.15 578.90 C 478.63 570.85 467.74 568.83 458.07 567.32 L 457.76 566.56 C 463.69 566.29 469.35 564.12 474.92 562.24 C 478.21 560.69 481.02 558.25 483.32 555.46 C 486.41 551.04 488.07 545.86 490.45 541.06 Z" />
</g>
<g id="#d7b05fff">
<path fill="#d7b05f" opacity="1.00" d=" M 492.35 543.74 C 495.12 548.23 496.99 553.25 500.15 557.53 C 504.52 563.99 511.33 568.14 518.15 571.60 C 520.26 572.74 522.62 573.54 524.37 575.28 C 523.02 575.19 521.67 575.11 520.33 575.04 C 513.43 573.13 506.20 571.76 500.06 567.88 C 497.21 566.24 496.02 562.97 494.91 560.06 C 493.25 554.80 491.94 549.30 492.35 543.74 Z" />
</g>
<g id="#d3cc8cff">
<path fill="#d3cc8c" opacity="1.00" d=" M 372.23 575.21 C 385.30 563.17 402.17 555.62 419.74 553.25 C 425.52 553.67 431.26 551.93 437.01 553.20 C 447.43 553.21 457.60 556.13 467.30 559.77 C 469.81 560.65 472.10 562.77 474.92 562.24 C 469.35 564.12 463.69 566.29 457.76 566.56 C 439.24 560.40 418.30 561.90 400.84 570.65 C 391.01 575.11 382.23 582.27 376.37 591.39 C 377.36 591.49 378.37 591.59 379.37 591.71 C 372.86 598.47 369.05 607.34 366.12 616.14 C 364.74 620.45 364.15 624.94 363.47 629.40 C 362.86 624.91 363.12 620.39 363.59 615.91 C 359.45 625.72 359.76 636.69 361.36 647.03 C 363.75 661.29 370.26 674.63 379.10 686.00 C 395.74 706.16 421.53 719.32 447.96 717.94 C 459.57 718.40 470.70 714.62 481.27 710.24 C 481.41 709.80 481.70 708.91 481.84 708.46 C 480.11 708.62 478.37 708.77 476.66 709.00 C 481.17 706.39 485.88 703.98 489.81 700.49 C 491.10 700.37 492.56 700.59 493.63 699.68 C 499.55 695.39 504.54 689.82 508.18 683.48 C 516.69 669.64 520.71 652.84 518.14 636.70 C 516.18 621.30 510.16 606.20 500.10 594.30 C 501.19 592.03 502.31 589.77 503.59 587.61 C 504.20 586.83 504.85 586.07 505.52 585.35 C 505.58 585.76 505.70 586.59 505.76 587.01 C 519.01 601.90 527.69 620.92 529.75 640.76 C 529.74 641.25 529.74 642.23 529.73 642.72 C 529.65 648.48 529.73 654.25 529.67 660.02 C 527.93 674.37 522.55 688.32 513.88 699.93 C 505.16 711.07 494.07 720.70 480.84 726.01 C 477.55 724.60 474.29 726.58 471.12 727.35 C 445.96 734.71 418.07 729.73 395.88 716.16 C 389.51 711.95 383.16 707.61 377.69 702.25 C 365.01 689.57 355.55 673.65 350.91 656.31 C 350.41 654.36 349.81 652.44 349.13 650.56 C 348.83 652.79 348.58 655.03 348.49 657.30 C 347.19 652.90 346.73 648.32 346.22 643.79 C 344.10 618.60 353.76 592.55 372.23 575.21 Z" />
</g>
<g id="#00e5e1ff">
<path fill="#00e5e1" opacity="1.00" d=" M 1057.14 558.07 C 1060.24 558.06 1063.34 558.07 1066.45 558.12 C 1066.52 558.68 1066.65 559.81 1066.72 560.38 C 1064.28 560.20 1061.83 560.25 1059.40 560.25 C 1059.41 571.83 1059.45 583.41 1059.40 594.99 C 1059.61 598.96 1055.78 602.03 1052.04 602.15 C 1049.23 602.43 1046.76 600.87 1044.71 599.16 C 1047.67 599.67 1051.00 600.48 1053.74 598.72 C 1056.15 597.44 1057.25 594.66 1057.14 592.03 C 1057.19 580.71 1057.13 569.39 1057.14 558.07 Z" />
</g>
<g id="#c09433ff">
<path fill="#c09433" opacity="1.00" d=" M 400.84 570.65 C 418.30 561.90 439.24 560.40 457.76 566.56 L 458.07 567.32 C 458.26 567.82 458.65 568.82 458.84 569.32 C 465.27 573.26 472.99 575.37 478.19 581.11 C 474.01 579.27 470.29 576.50 465.95 575.00 C 447.01 566.18 424.30 564.94 405.00 573.39 C 403.15 572.62 401.16 572.55 399.20 572.67 C 399.74 571.98 400.28 571.31 400.84 570.65 Z" />
</g>
<g id="#a74104ff">
<path fill="#a74104" opacity="1.00" d=" M 405.00 573.39 C 424.30 564.94 447.01 566.18 465.95 575.00 C 463.54 575.41 461.08 575.66 458.67 575.15 C 451.37 572.60 443.68 571.28 436.01 570.59 C 427.85 570.40 419.40 570.05 411.62 572.89 C 406.05 574.22 401.07 577.33 395.45 578.43 C 398.65 576.78 401.71 574.86 405.00 573.39 Z" />
</g>
<g id="#bb6111ff">
<path fill="#bb6111" opacity="1.00" d=" M 458.07 567.32 C 467.74 568.83 478.63 570.85 485.15 578.90 C 490.95 585.98 494.35 594.83 495.54 603.87 C 496.50 602.69 497.47 601.52 498.44 600.34 C 507.10 612.50 513.22 626.85 513.90 641.89 C 513.41 643.00 512.87 644.10 512.35 645.21 C 511.58 633.93 508.12 622.72 501.44 613.53 C 499.99 611.70 498.32 609.57 495.83 609.31 C 493.60 609.69 491.57 610.80 489.36 611.28 C 487.92 611.05 486.50 610.78 485.10 610.47 C 485.21 609.94 485.43 608.89 485.54 608.36 C 484.67 608.08 483.81 607.80 482.96 607.53 C 481.80 605.96 480.51 604.48 479.16 603.09 C 482.04 603.91 484.99 604.52 487.95 605.04 C 486.27 602.77 484.18 600.70 483.17 598.02 C 483.91 597.03 484.77 596.13 485.61 595.22 C 483.11 591.56 478.79 590.14 475.28 587.74 C 472.64 585.96 472.25 582.06 469.16 580.82 C 465.62 579.01 462.26 576.84 458.67 575.15 C 461.08 575.66 463.54 575.41 465.95 575.00 C 470.29 576.50 474.01 579.27 478.19 581.11 C 472.99 575.37 465.27 573.26 458.84 569.32 C 458.65 568.82 458.26 567.82 458.07 567.32 Z" />
</g>
<g id="#c8a84eff">
<path fill="#c8a84e" opacity="1.00" d=" M 376.37 591.39 C 382.23 582.27 391.01 575.11 400.84 570.65 C 400.28 571.31 399.74 571.98 399.20 572.67 C 401.16 572.55 403.15 572.62 405.00 573.39 C 401.71 574.86 398.65 576.78 395.45 578.43 C 388.86 581.08 384.33 586.88 379.37 591.71 C 378.37 591.59 377.36 591.49 376.37 591.39 Z" />
</g>
<g id="#c36f19ff">
<path fill="#c36f19" opacity="1.00" d=" M 411.62 572.89 C 419.40 570.05 427.85 570.40 436.01 570.59 C 443.68 571.28 451.37 572.60 458.67 575.15 C 462.26 576.84 465.62 579.01 469.16 580.82 C 472.25 582.06 472.64 585.96 475.28 587.74 C 478.79 590.14 483.11 591.56 485.61 595.22 C 484.77 596.13 483.91 597.03 483.17 598.02 C 484.18 600.70 486.27 602.77 487.95 605.04 C 484.99 604.52 482.04 603.91 479.16 603.09 C 480.51 604.48 481.80 605.96 482.96 607.53 C 483.81 607.80 484.67 608.08 485.54 608.36 C 485.43 608.89 485.21 609.94 485.10 610.47 C 483.89 610.14 482.71 609.79 481.55 609.36 C 473.76 605.14 466.23 598.15 465.38 588.84 C 466.18 588.74 467.76 588.55 468.55 588.46 C 468.93 587.09 469.32 585.73 469.71 584.38 C 457.51 574.50 441.24 571.91 425.97 572.32 C 421.16 572.25 416.42 573.66 411.62 572.89 Z" />
</g>
<g id="#d0912fff">
<path fill="#d0912f" opacity="1.00" d=" M 411.62 572.89 C 416.42 573.66 421.16 572.25 425.97 572.32 C 441.24 571.91 457.51 574.50 469.71 584.38 C 469.32 585.73 468.93 587.09 468.55 588.46 C 467.76 588.55 466.18 588.74 465.38 588.84 C 465.08 584.88 459.86 585.33 457.00 584.96 C 453.76 584.68 450.55 584.19 447.38 583.55 C 447.32 585.72 447.28 587.89 447.31 590.07 C 447.33 591.55 447.39 593.05 447.44 594.54 C 447.46 605.82 447.28 617.11 447.47 628.39 C 447.33 637.60 447.56 646.82 447.42 656.04 C 447.48 658.31 446.40 660.36 445.30 662.28 C 445.28 652.50 446.39 642.74 445.58 632.98 C 444.39 618.24 446.15 603.43 444.78 588.72 C 442.30 591.53 440.90 595.09 438.47 597.93 C 436.03 600.44 432.14 602.91 432.92 606.98 C 434.23 609.52 437.13 611.08 437.78 613.99 C 439.04 619.21 438.74 624.63 438.48 629.95 C 438.41 626.46 438.31 622.97 438.17 619.49 C 437.77 619.47 436.97 619.45 436.57 619.44 C 431.74 619.32 426.90 618.89 422.08 619.37 C 410.36 621.23 400.53 629.98 396.18 640.87 C 390.50 644.04 388.43 650.92 386.73 656.79 C 384.48 663.84 386.64 671.22 389.12 677.89 C 393.84 687.72 402.68 695.41 412.88 699.15 C 418.30 701.02 424.08 700.45 429.62 699.60 C 433.71 698.91 438.30 699.46 441.81 696.85 C 445.93 694.02 450.40 691.53 453.75 687.73 C 455.83 685.32 458.24 682.83 458.60 679.51 C 463.20 673.62 466.85 666.56 466.83 658.92 C 466.88 650.60 466.77 642.28 466.42 633.97 C 471.92 636.53 478.73 639.30 484.28 635.30 C 485.63 634.17 486.84 632.89 487.96 631.54 C 487.10 630.29 486.08 629.15 484.95 628.16 C 487.01 628.66 489.11 628.92 491.22 629.19 C 491.36 624.11 490.76 619.06 489.92 614.08 C 492.63 615.33 495.64 616.15 498.02 618.02 C 499.26 620.54 497.53 623.60 498.76 626.20 C 500.73 630.86 501.51 635.91 503.52 640.56 C 506.92 648.13 506.39 656.65 508.26 664.61 C 509.24 668.72 506.41 672.75 507.86 676.82 C 506.93 678.91 505.99 681.01 504.86 683.02 C 501.02 689.77 495.30 695.11 489.81 700.49 C 485.88 703.98 481.17 706.39 476.66 709.00 C 469.17 712.37 461.13 714.64 452.97 715.49 C 445.54 715.50 437.99 716.15 430.68 714.56 C 412.38 711.23 395.13 701.56 383.08 687.33 C 380.72 680.21 377.02 673.64 374.34 666.65 C 369.81 656.81 367.97 645.94 367.65 635.17 C 366.40 629.11 370.02 623.27 368.84 617.25 C 367.96 616.81 367.03 616.48 366.12 616.14 C 369.05 607.34 372.86 598.47 379.37 591.71 C 384.33 586.88 388.86 581.08 395.45 578.43 C 401.07 577.33 406.05 574.22 411.62 572.89 Z" />
</g>
<g id="#ff0053ff">
<path fill="#ff0053" opacity="1.00" d=" M 1080.43 572.68 C 1080.81 572.76 1081.57 572.94 1081.95 573.03 C 1081.94 575.92 1081.93 578.80 1081.87 581.69 C 1077.17 581.27 1072.51 580.00 1068.64 577.24 C 1068.73 581.50 1068.67 585.77 1068.71 590.04 C 1068.69 594.09 1069.10 598.40 1067.05 602.09 C 1065.19 605.59 1062.09 609.44 1057.74 609.35 C 1056.56 608.96 1055.39 608.57 1054.24 608.16 L 1055.08 607.93 C 1061.83 606.53 1066.46 599.66 1066.43 592.97 C 1066.55 587.04 1066.45 581.11 1066.45 575.18 C 1070.41 577.73 1074.97 579.16 1079.67 579.47 C 1079.63 577.13 1079.54 574.79 1079.39 572.46 C 1079.65 572.51 1080.17 572.62 1080.43 572.68 Z" />
</g>
<g id="#c88327ff">
<path fill="#c88327" opacity="1.00" d=" M 506.77 577.86 C 510.74 575.26 515.77 575.44 520.33 575.04 C 521.67 575.11 523.02 575.19 524.37 575.28 C 524.77 575.30 525.56 575.36 525.95 575.38 C 525.82 575.93 525.55 577.02 525.42 577.56 C 524.78 577.60 523.51 577.70 522.87 577.74 C 516.92 579.84 510.59 581.30 505.52 585.35 C 504.85 586.07 504.20 586.83 503.59 587.61 C 503.11 584.10 504.31 580.40 506.77 577.86 Z" />
</g>
<g id="#800e32ff">
<path fill="#800e32" opacity="1.00" d=" M 1052.56 578.47 C 1052.84 578.61 1053.41 578.89 1053.70 579.02 L 1052.39 578.98 C 1052.27 581.37 1052.28 583.76 1052.28 586.15 C 1049.88 586.38 1047.49 586.61 1045.13 587.01 C 1047.17 585.77 1049.58 585.73 1051.90 585.60 C 1051.82 583.24 1051.73 580.88 1051.62 578.53 C 1051.85 578.52 1052.32 578.49 1052.56 578.47 Z" />
</g>
<g id="#ff0952ff">
<path fill="#ff0952" opacity="1.00" d=" M 1052.39 578.98 L 1053.70 579.02 C 1055.15 581.55 1054.04 585.20 1054.34 588.17 C 1051.57 588.31 1048.36 587.98 1046.30 590.23 C 1043.47 592.37 1044.34 596.16 1044.71 599.16 C 1041.02 595.95 1040.70 589.73 1045.13 587.01 C 1047.49 586.61 1049.88 586.38 1052.28 586.15 C 1052.28 583.76 1052.27 581.37 1052.39 578.98 Z" />
</g>
<g id="#d1ca8aff">
<path fill="#d1ca8a" opacity="1.00" d=" M 447.38 583.55 C 450.55 584.19 453.76 584.68 457.00 584.96 C 457.22 585.28 457.66 585.92 457.88 586.25 C 454.30 587.35 450.76 588.61 447.31 590.07 C 447.28 587.89 447.32 585.72 447.38 583.55 Z" />
</g>
<g id="#c6b56dff">
<path fill="#c6b56d" opacity="1.00" d=" M 457.00 584.96 C 459.86 585.33 465.08 584.88 465.38 588.84 C 466.23 598.15 473.76 605.14 481.55 609.36 C 479.42 613.34 476.58 616.86 473.80 620.40 C 471.32 617.17 469.57 613.23 466.16 610.86 C 463.47 608.65 459.97 613.51 457.37 610.70 C 454.86 608.19 452.55 605.40 450.66 602.40 C 450.38 599.43 450.53 596.14 447.44 594.54 C 447.39 593.05 447.33 591.55 447.31 590.07 C 450.76 588.61 454.30 587.35 457.88 586.25 C 457.66 585.92 457.22 585.28 457.00 584.96 Z" />
</g>
<g id="#be6815ff">
<path fill="#be6815" opacity="1.00" d=" M 438.47 597.93 C 440.90 595.09 442.30 591.53 444.78 588.72 C 446.15 603.43 444.39 618.24 445.58 632.98 C 446.39 642.74 445.28 652.50 445.30 662.28 C 444.29 663.87 443.17 665.40 441.96 666.86 C 440.84 665.85 440.17 664.54 440.26 663.01 C 439.96 656.34 438.50 649.68 439.35 642.99 C 440.20 636.66 440.22 630.27 440.99 623.94 C 441.63 618.43 440.60 612.94 440.54 607.43 C 440.64 604.10 438.51 601.25 438.47 597.93 Z" />
</g>
<g id="#c09332ff">
<path fill="#c09332" opacity="1.00" d=" M 500.10 594.30 C 510.16 606.20 516.18 621.30 518.14 636.70 C 517.54 644.16 517.88 651.69 516.42 659.07 C 516.09 652.44 516.91 645.73 515.83 639.17 C 515.63 638.80 515.23 638.07 515.04 637.71 C 514.38 643.18 515.02 648.71 514.33 654.19 C 514.16 650.09 514.01 645.99 513.90 641.89 C 513.22 626.85 507.10 612.50 498.44 600.34 C 498.19 598.17 499.19 596.19 500.10 594.30 Z" />
</g>
<g id="#c98226ff">
<path fill="#c98226" opacity="1.00" d=" M 432.92 606.98 C 432.14 602.91 436.03 600.44 438.47 597.93 C 438.51 601.25 440.64 604.10 440.54 607.43 C 440.60 612.94 441.63 618.43 440.99 623.94 C 440.22 630.27 440.20 636.66 439.35 642.99 C 438.50 649.68 439.96 656.34 440.26 663.01 C 440.17 664.54 440.84 665.85 441.96 666.86 C 439.86 667.99 437.65 668.94 435.33 669.49 C 432.33 668.87 429.34 668.16 426.34 667.55 C 426.67 667.31 427.34 666.82 427.67 666.57 C 424.16 662.53 421.56 657.32 416.46 655.01 C 415.90 653.56 415.35 652.13 414.87 650.68 C 415.09 649.00 415.79 647.44 416.61 645.98 C 416.65 646.47 416.75 647.43 416.80 647.91 C 421.85 644.63 428.14 646.19 433.41 643.61 C 433.67 642.95 434.19 641.62 434.45 640.95 C 434.77 640.42 435.42 639.34 435.75 638.81 C 435.94 638.63 436.31 638.26 436.50 638.08 C 436.82 631.87 436.57 625.65 436.57 619.44 C 436.97 619.45 437.77 619.47 438.17 619.49 C 438.31 622.97 438.41 626.46 438.48 629.95 C 438.74 624.63 439.04 619.21 437.78 613.99 C 437.13 611.08 434.23 609.52 432.92 606.98 Z" />
</g>
<g id="#81c7c9ff">
<path fill="#81c7c9" opacity="1.00" d=" M 1033.22 598.59 C 1034.34 599.46 1035.50 600.30 1036.67 601.14 C 1036.48 601.53 1036.10 602.29 1035.91 602.67 L 1036.53 602.96 C 1036.91 603.52 1037.67 604.64 1038.05 605.20 C 1035.82 603.51 1033.83 601.41 1033.22 598.59 Z" />
</g>
<g id="#15090dff">
<path fill="#15090d" opacity="1.00" d=" M 1036.53 602.96 C 1039.74 604.18 1042.75 605.86 1045.68 607.65 L 1046.86 608.39 C 1043.61 608.36 1040.73 606.84 1038.05 605.20 C 1037.67 604.64 1036.91 603.52 1036.53 602.96 Z" />
</g>
<g id="#c78025ff">
<path fill="#c78025" opacity="1.00" d=" M 489.36 611.28 C 491.57 610.80 493.60 609.69 495.83 609.31 C 498.32 609.57 499.99 611.70 501.44 613.53 C 508.12 622.72 511.58 633.93 512.35 645.21 C 512.87 644.10 513.41 643.00 513.90 641.89 C 514.01 645.99 514.16 650.09 514.33 654.19 C 513.77 662.08 511.38 669.76 507.86 676.82 C 506.41 672.75 509.24 668.72 508.26 664.61 C 506.39 656.65 506.92 648.13 503.52 640.56 C 501.51 635.91 500.73 630.86 498.76 626.20 C 497.53 623.60 499.26 620.54 498.02 618.02 C 495.64 616.15 492.63 615.33 489.92 614.08 C 489.73 613.13 489.54 612.20 489.36 611.28 Z" />
</g>
<g id="#d89d3cff">
<path fill="#d89d3c" opacity="1.00" d=" M 366.12 616.14 C 367.03 616.48 367.96 616.81 368.84 617.25 C 370.02 623.27 366.40 629.11 367.65 635.17 C 367.97 645.94 369.81 656.81 374.34 666.65 C 377.02 673.64 380.72 680.21 383.08 687.33 C 369.24 671.66 361.74 650.31 363.47 629.40 C 364.15 624.94 364.74 620.45 366.12 616.14 Z" />
</g>
<g id="#d2cb8bff">
<path fill="#d2cb8b" opacity="1.00" d=" M 396.18 640.87 C 400.53 629.98 410.36 621.23 422.08 619.37 C 426.90 618.89 431.74 619.32 436.57 619.44 C 436.57 625.65 436.82 631.87 436.50 638.08 C 436.31 638.26 435.94 638.63 435.75 638.81 C 430.48 635.83 423.40 637.69 419.68 642.29 C 418.56 643.44 417.51 644.65 416.61 645.98 C 415.79 647.44 415.09 649.00 414.87 650.68 C 413.49 661.58 424.48 672.25 435.33 669.49 C 437.65 668.94 439.86 667.99 441.96 666.86 C 443.17 665.40 444.29 663.87 445.30 662.28 C 446.40 660.36 447.48 658.31 447.42 656.04 C 447.56 646.82 447.33 637.60 447.47 628.39 C 448.85 629.12 450.28 630.09 449.98 631.90 C 450.33 638.98 449.54 646.09 450.28 653.17 C 453.84 645.82 457.43 638.20 463.53 632.59 C 464.34 627.96 463.77 623.12 465.39 618.60 C 465.44 620.23 465.49 621.87 465.56 623.51 C 465.59 624.07 465.66 625.19 465.69 625.75 C 465.90 628.49 466.26 631.22 466.42 633.97 C 466.77 642.28 466.88 650.60 466.83 658.92 C 466.85 666.56 463.20 673.62 458.60 679.51 C 455.55 682.93 451.70 685.46 447.78 687.76 C 438.28 692.45 426.92 693.08 417.05 689.16 C 417.56 689.03 418.58 688.78 419.09 688.66 C 412.85 687.85 407.82 683.54 403.49 679.29 C 399.02 671.80 394.07 664.03 393.86 655.00 C 394.02 650.22 394.51 645.38 396.18 640.87 Z" />
</g>
<g id="#be8c2dff">
<path fill="#be8c2d" opacity="1.00" d=" M 465.39 618.60 C 471.30 622.88 477.84 626.35 484.95 628.16 C 486.08 629.15 487.10 630.29 487.96 631.54 C 479.73 631.59 472.46 627.47 465.56 623.51 C 465.49 621.87 465.44 620.23 465.39 618.60 Z" />
</g>
<g id="#a74507ff">
<path fill="#a74507" opacity="1.00" d=" M 465.56 623.51 C 472.46 627.47 479.73 631.59 487.96 631.54 C 486.84 632.89 485.63 634.17 484.28 635.30 C 477.44 634.50 467.86 633.74 465.69 625.75 C 465.66 625.19 465.59 624.07 465.56 623.51 Z" />
</g>
<g id="#bb6b19ff">
<path fill="#bb6b19" opacity="1.00" d=" M 465.69 625.75 C 467.86 633.74 477.44 634.50 484.28 635.30 C 478.73 639.30 471.92 636.53 466.42 633.97 C 466.26 631.22 465.90 628.49 465.69 625.75 Z" />
</g>
<g id="#c29631ff">
<path fill="#c29631" opacity="1.00" d=" M 419.68 642.29 C 423.40 637.69 430.48 635.83 435.75 638.81 C 435.42 639.34 434.77 640.42 434.45 640.95 C 429.49 639.78 424.40 640.55 419.68 642.29 Z" />
</g>
<g id="#cba84aff">
<path fill="#cba84a" opacity="1.00" d=" M 518.14 636.70 C 520.71 652.84 516.69 669.64 508.18 683.48 C 507.07 683.32 505.96 683.17 504.86 683.02 C 505.99 681.01 506.93 678.91 507.86 676.82 C 511.38 669.76 513.77 662.08 514.33 654.19 C 515.02 648.71 514.38 643.18 515.04 637.71 C 515.23 638.07 515.63 638.80 515.83 639.17 C 516.91 645.73 516.09 652.44 516.42 659.07 C 517.88 651.69 517.54 644.16 518.14 636.70 Z" />
</g>
<g id="#a64406ff">
<path fill="#a64406" opacity="1.00" d=" M 419.68 642.29 C 424.40 640.55 429.49 639.78 434.45 640.95 C 434.19 641.62 433.67 642.95 433.41 643.61 C 428.14 646.19 421.85 644.63 416.80 647.91 C 416.75 647.43 416.65 646.47 416.61 645.98 C 417.51 644.65 418.56 643.44 419.68 642.29 Z" />
</g>
<g id="#c16e19ff">
<path fill="#c16e19" opacity="1.00" d=" M 386.73 656.79 C 388.43 650.92 390.50 644.04 396.18 640.87 C 394.51 645.38 394.02 650.22 393.86 655.00 C 394.07 664.03 399.02 671.80 403.49 679.29 C 402.85 679.47 401.57 679.84 400.93 680.02 C 405.72 688.13 414.11 693.55 423.01 696.17 C 429.75 698.06 436.50 695.49 442.88 693.48 C 445.75 692.62 447.80 690.32 449.88 688.29 C 449.36 688.16 448.31 687.89 447.78 687.76 C 451.70 685.46 455.55 682.93 458.60 679.51 C 458.24 682.83 455.83 685.32 453.75 687.73 C 450.40 691.53 445.93 694.02 441.81 696.85 C 438.30 699.46 433.71 698.91 429.62 699.60 C 424.08 700.45 418.30 701.02 412.88 699.15 C 402.68 695.41 393.84 687.72 389.12 677.89 C 386.64 671.22 384.48 663.84 386.73 656.79 Z" />
</g>
<g id="#bfaf65ff">
<path fill="#bfaf65" opacity="1.00" d=" M 349.13 650.56 C 349.81 652.44 350.41 654.36 350.91 656.31 C 355.55 673.65 365.01 689.57 377.69 702.25 C 383.16 707.61 389.51 711.95 395.88 716.16 C 418.07 729.73 445.96 734.71 471.12 727.35 C 474.29 726.58 477.55 724.60 480.84 726.01 C 474.53 728.87 467.80 730.53 461.26 732.73 C 448.03 734.82 434.54 734.54 421.34 732.50 C 421.16 732.03 420.82 731.09 420.64 730.62 C 419.68 730.86 417.77 731.33 416.81 731.57 L 416.41 731.35 C 414.37 729.96 411.95 729.43 409.66 728.66 C 404.15 726.67 398.99 723.86 393.70 721.36 C 386.69 717.34 380.54 711.91 374.99 706.07 C 363.41 695.10 354.94 680.84 350.70 665.47 C 350.00 662.73 349.22 660.02 348.49 657.30 C 348.58 655.03 348.83 652.79 349.13 650.56 Z" />
</g>
<g id="#d5952dff">
<path fill="#d5952d" opacity="1.00" d=" M 414.87 650.68 C 415.35 652.13 415.90 653.56 416.46 655.01 C 421.56 657.32 424.16 662.53 427.67 666.57 C 427.34 666.82 426.67 667.31 426.34 667.55 C 429.34 668.16 432.33 668.87 435.33 669.49 C 424.48 672.25 413.49 661.58 414.87 650.68 Z" />
</g>
<g id="#a94706ff">
<path fill="#a94706" opacity="1.00" d=" M 400.93 680.02 C 401.57 679.84 402.85 679.47 403.49 679.29 C 407.82 683.54 412.85 687.85 419.09 688.66 C 418.58 688.78 417.56 689.03 417.05 689.16 C 426.92 693.08 438.28 692.45 447.78 687.76 C 448.31 687.89 449.36 688.16 449.88 688.29 C 447.80 690.32 445.75 692.62 442.88 693.48 C 436.50 695.49 429.75 698.06 423.01 696.17 C 414.11 693.55 405.72 688.13 400.93 680.02 Z" />
</g>
<g id="#d6b465ff">
<path fill="#d6b465" opacity="1.00" d=" M 489.81 700.49 C 495.30 695.11 501.02 689.77 504.86 683.02 C 505.96 683.17 507.07 683.32 508.18 683.48 C 504.54 689.82 499.55 695.39 493.63 699.68 C 492.56 700.59 491.10 700.37 489.81 700.49 Z" />
</g>
</svg>
